<svg width="2222" height="2500" viewBox="0 0 2222 2500" fill="none" xmlns="http://www.w3.org/2000/svg">
<path d="M2218.26 735.343C2218.24 693.42 2209.28 656.375 2191.14 624.582C2173.33 593.317 2146.66 567.113 2110.88 546.395C1815.56 376.108 1519.94 206.342 1224.71 35.8818C1145.12 -10.0685 1067.95 -8.39327 988.946 38.2166C871.397 107.541 282.871 444.721 107.498 546.3C35.2743 588.11 0.130195 652.096 0.112836 735.265C0 1077.72 0.112836 1420.17 0 1762.64C0.0173594 1803.64 8.60157 1839.96 25.9349 1871.28C43.7543 1903.49 70.8002 1930.41 107.402 1951.6C282.784 2053.18 871.389 2390.33 988.911 2459.68C1067.95 2506.31 1145.12 2507.98 1224.74 2462.01C1519.98 2291.54 1815.61 2121.78 2110.98 1951.5C2147.58 1930.32 2174.63 1903.38 2192.45 1871.19C2209.75 1839.88 2218.35 1803.55 2218.37 1762.54C2218.37 1762.54 2218.37 1077.81 2218.26 735.343" fill="#5C8DBC"/>
<path d="M1112.58 1245.61L25.9348 1871.28C43.7542 1903.49 70.8001 1930.41 107.402 1951.6C282.784 2053.18 871.388 2390.33 988.911 2459.68C1067.95 2506.31 1145.12 2507.98 1224.74 2462.01C1519.98 2291.54 1815.61 2121.78 2110.98 1951.5C2147.58 1930.32 2174.63 1903.38 2192.45 1871.19L1112.58 1245.61" fill="#1A4674"/>
<path d="M790.728 1430.94C853.96 1541.33 972.828 1615.78 1109.19 1615.78C1246.39 1615.78 1365.93 1540.38 1428.84 1428.82L1112.58 1245.61L790.728 1430.94" fill="#1A4674"/>
<path d="M2218.26 735.343C2218.24 693.42 2209.28 656.375 2191.14 624.582L1112.58 1245.61L2192.45 1871.19C2209.75 1839.88 2218.35 1803.55 2218.37 1762.54C2218.37 1762.54 2218.37 1077.81 2218.26 735.343" fill="#1B598E"/>
<path d="M2158.88 1290.33H2074.5V1374.73H1990.1V1290.33H1905.72V1205.96H1990.1V1121.57H2074.5V1205.96H2158.88V1290.33ZM1850.97 1290.33H1766.59V1374.73H1682.21V1290.33H1597.83V1205.96H1682.21V1121.57H1766.59V1205.96H1850.97V1290.33Z" fill="white"/>
<path d="M1428.84 1428.82C1365.93 1540.38 1246.39 1615.78 1109.19 1615.78C972.828 1615.78 853.96 1541.33 790.728 1430.94C758.964 1375.55 742.282 1312.8 742.348 1248.95C742.348 1046.35 906.593 882.117 1109.19 882.117C1244.67 882.117 1362.91 955.642 1426.45 1064.9L1747.09 880.268C1619.65 660.272 1381.71 512.266 1109.19 512.266C702.317 512.266 372.498 842.095 372.498 1248.95C372.498 1382.42 408.006 1507.59 470.066 1615.56C597.189 1836.72 835.802 1985.63 1109.19 1985.63C1383.07 1985.63 1622.06 1836.12 1749 1614.31L1428.84 1428.82Z" fill="white"/>
</svg>
