<svg width="1080" height="1080" viewBox="0 0 1080 1080" fill="none" xmlns="http://www.w3.org/2000/svg">
<g clip-path="url(#clip0_210_495)">
<path fill-rule="evenodd" clip-rule="evenodd" d="M534.467 50.0104C138.049 52.4589 101.131 578.21 228.416 721.175C327.509 832.476 453.927 813.584 453.927 813.584C453.927 813.584 381.801 838.29 386.811 953.572C388.745 998.077 430.212 1031.24 480.774 1029.93C548.665 1028.17 547.89 889.941 547.89 889.941C547.89 889.941 548.757 1026.75 628.43 1029.93C689.973 1032.39 721.326 966.284 722.393 928.12C724.434 855.132 628.43 800.858 628.43 800.858C628.43 800.858 768.155 793.241 843.203 694.329C975.593 519.839 974.208 47.2959 534.467 50.0104Z" fill="#895B8A"/>
<path fill-rule="evenodd" clip-rule="evenodd" d="M303.433 337.186C318.616 339.158 339.803 339.965 364.16 340.118C444.086 340.619 557.352 332.937 609.466 328.868C623.637 294.649 640.18 261.761 650.658 244.108C654.013 238.457 656.799 234.304 658.72 232.027C660.139 230.348 661.409 229.398 662.26 228.973C664.531 227.837 667.914 227.211 672.26 227.377C680.111 227.676 691.917 230.442 705.634 234.847C750.245 249.171 815.623 280.75 829.156 294.282C832.235 297.362 832.951 300.451 832.517 303.227C832.002 306.519 829.27 310.015 824.394 312.728C811.861 319.704 783.241 323.806 782.579 323.908C732.876 331.554 680.865 333.363 630.621 337.732C627.049 338.043 622.365 338.434 616.733 338.884C607.582 361.553 599.727 384.424 595.707 403.33C593.095 415.617 592.058 426.116 593.668 433.553C594.793 438.744 597.426 442.052 602.598 442.052C605.511 442.052 607.877 444.417 607.877 447.33C607.877 450.245 605.511 452.61 602.598 452.61C597.076 452.61 592.826 450.857 589.612 447.844C586.604 445.025 584.473 440.976 583.35 435.787C581.503 427.266 582.385 415.216 585.38 401.134C589.219 383.075 596.48 361.466 605.04 339.799C550.68 343.966 441.72 351.163 364.092 350.677C323.032 350.419 290.545 347.744 278.634 341.789C276.25 340.597 275.707 338.711 275.699 337.074C275.693 335.984 275.931 334.456 277.492 333.072C277.763 332.83 278.227 332.457 278.983 332.126C279.565 331.869 281.791 331.235 285.412 330.394C312.748 324.045 432.529 299.525 475.277 281.819C478.401 280.525 481.467 278.827 483.753 277.45C480.309 276.653 475.441 275.634 470.568 274.973C421.269 268.281 299.121 263.089 250.756 259.635C247.85 259.428 245.659 256.899 245.867 253.993C246.074 251.087 248.601 248.895 251.508 249.103C300.021 252.569 422.539 257.798 471.988 264.51C481.167 265.756 487.96 267.109 491.554 268.45C494.803 269.662 496.431 271.434 497.056 272.683C498.375 275.319 498.283 278.223 496.083 281.238C493.907 284.223 488.094 287.938 479.317 291.574C441.952 307.051 346.266 327.763 303.433 337.186ZM621.262 327.925C624.528 327.657 627.358 327.417 629.707 327.213C679.722 322.864 731.497 321.084 780.973 313.472C781.5 313.391 801.103 310.704 814.009 305.856C816.319 304.989 818.396 304.061 820.044 303.045C820.605 302.698 821.259 302.14 821.691 301.75L821.69 301.748C808.645 288.704 745.41 258.708 702.406 244.9C691.544 241.411 681.995 238.962 674.919 238.167C671.613 237.796 669.011 237.625 667.348 238.257C666.712 239.088 662.997 244.007 659.737 249.498C649.942 266 634.715 296.084 621.262 327.925Z" fill="white"/>
<path fill-rule="evenodd" clip-rule="evenodd" d="M856.816 296.964C856.705 296.732 856.196 295.68 855.733 294.982C853.995 292.352 851.09 289.051 847.542 285.373C832.708 270.001 807.061 248.803 800.923 242.666C798.863 240.605 798.863 237.26 800.923 235.199C802.984 233.139 806.329 233.139 808.389 235.199C814.546 241.356 840.262 262.624 855.14 278.042C859.991 283.07 863.732 287.566 865.569 290.835C866.861 293.131 867.364 295.135 867.364 296.637C867.364 299.551 864.999 301.916 862.086 301.916C859.282 301.916 856.985 299.726 856.816 296.964Z" fill="white"/>
<path fill-rule="evenodd" clip-rule="evenodd" d="M709.765 424.665C705.769 400.265 693.427 371.61 689.583 362C688.501 359.294 689.819 356.219 692.524 355.137C695.23 354.055 698.304 355.372 699.386 358.078C703.579 368.558 717.308 400.818 720.755 426.941C762.318 435.928 800.494 448.282 800.494 448.282C803.266 449.179 804.787 452.158 803.89 454.931C802.992 457.702 800.012 459.224 797.241 458.325C797.241 458.325 761.334 446.678 721.545 437.893C721.555 451.014 717.502 461.251 708.331 465.835C704.773 467.615 697.793 468.25 689.032 467.453C671.087 465.819 644.76 458.98 628.937 451.462C622.308 448.313 617.421 444.874 615.095 441.766C612.238 437.951 612.065 434.205 614.188 430.772C617.177 425.936 622.544 422.38 629.947 420.284C639.284 417.639 652.176 417.216 666.785 418.363C680.131 419.409 694.968 421.741 709.765 424.665ZM710.95 435.645C695.504 432.508 679.903 429.982 665.96 428.889C652.822 427.859 641.221 428.064 632.823 430.443C628.836 431.572 625.638 433.1 623.74 435.508C624.604 436.33 626.722 438.261 628.73 439.441C630.147 440.274 631.738 441.104 633.468 441.925C648.348 448.995 673.113 455.402 689.99 456.938C696.155 457.499 701.105 457.644 703.609 456.392C707.405 454.495 709.317 450.749 710.264 446.112C710.909 442.96 711.099 439.427 710.95 435.645Z" fill="white"/>
<path fill-rule="evenodd" clip-rule="evenodd" d="M429.949 409.639C429.068 401.228 426.872 391.757 423.751 381.663C405.934 324.031 357.891 246.844 339.286 228.239C337.225 226.179 337.225 222.833 339.286 220.773C341.346 218.713 344.691 218.713 346.752 220.773C365.895 239.917 415.505 319.243 433.839 378.545C437.575 390.63 440.011 401.913 440.72 411.742C493.454 422.337 544.553 436.85 544.553 436.85C547.356 437.647 548.985 440.568 548.189 443.371C547.392 446.174 544.471 447.802 541.668 447.006C541.668 447.006 492.26 432.954 440.739 422.499C440.132 430.026 438.099 436.364 434.594 441.229C421.387 459.556 402.284 464.708 383.38 462.579C365.225 460.536 347.301 451.63 335.57 441.726C329.115 436.276 324.517 430.462 322.428 425.313C320.583 420.765 320.543 416.549 322.118 413.019C324.303 408.124 329.738 404.355 338.232 402.497C348.234 400.309 363.019 400.423 380.21 402.125C395.426 403.631 412.593 406.355 429.949 409.639ZM430.298 420.438C412.477 417.023 394.783 414.178 379.17 412.632C363.329 411.063 349.706 410.795 340.488 412.811C337.916 413.374 335.738 414.099 334.054 415.096C333.005 415.717 332.172 416.4 331.76 417.322C331.029 418.958 331.847 420.902 333.048 423.079C334.944 426.512 338.215 430.14 342.381 433.658C352.734 442.398 368.54 450.284 384.562 452.088C399.835 453.807 415.357 449.863 426.028 435.055C428.717 431.323 429.979 426.327 430.298 420.438Z" fill="white"/>
<path fill-rule="evenodd" clip-rule="evenodd" d="M369.623 557.038C362.397 546.1 359.603 534.792 363.279 523.765C364.325 520.625 367.149 517.629 372.015 515.454C377.13 513.166 384.931 511.522 394.53 510.592C429.6 507.192 489.968 512.728 524.613 521.842C537.114 525.13 546.416 529.093 550.685 533.023C553.891 535.976 555.004 539.197 554.619 542.257C554.278 544.97 552.623 548.015 548.599 550.77C542.785 554.749 530.402 558.963 509.359 562.789C495.656 565.281 419.538 567.468 395.853 567.468C394.873 567.468 393.892 567.469 392.911 567.471C406.095 579.44 423.431 590.455 439.297 599.553C458.282 610.44 475.274 618.606 481.313 622.365C483.461 623.702 484.673 624.924 485.134 625.61C485.931 626.798 486.128 627.913 486.128 628.806C486.128 631.721 483.762 634.086 480.848 634.086C479.12 634.086 477.584 633.254 476.621 631.967C474.144 630.675 453.628 619.943 434.044 608.712C414.189 597.326 392.259 582.95 377.975 567.539C349.252 567.722 320.557 568.005 291.955 565.145C289.057 564.855 286.938 562.266 287.228 559.366C287.518 556.467 290.107 554.349 293.006 554.639C318.486 557.186 344.04 557.198 369.623 557.038ZM382.719 556.954C387.097 556.928 391.475 556.909 395.853 556.909C419.143 556.909 493.995 554.851 507.47 552.4C523.804 549.431 534.44 546.425 540.454 543.333C541.743 542.671 543.021 541.664 543.707 541.086C542.927 540.435 541.224 539.079 539.689 538.284C535.397 536.064 529.28 533.988 521.928 532.053C488.268 523.2 429.621 517.797 395.549 521.101C387.367 521.894 380.686 523.142 376.326 525.091C375.453 525.482 374.696 525.891 374.081 526.349C373.738 526.605 373.4 526.79 373.296 527.104C370.039 536.875 374.385 546.698 382.144 556.254C382.334 556.488 382.526 556.721 382.719 556.954Z" fill="white"/>
<path fill-rule="evenodd" clip-rule="evenodd" d="M269.879 632.959C267.08 632.148 265.466 629.219 266.276 626.42C267.086 623.621 270.016 622.006 272.815 622.817C364.872 649.465 455.602 644.202 547.466 644.202C550.38 644.202 552.745 646.568 552.745 649.481C552.745 652.395 550.38 654.761 547.466 654.761C454.615 654.761 362.925 659.893 269.879 632.959Z" fill="white"/>
<path fill-rule="evenodd" clip-rule="evenodd" d="M735.23 608.082C721.665 614.3 701.277 618.43 683.51 618.196C672.61 618.052 662.683 616.224 655.671 612.51C650.092 609.555 646.204 605.411 644.451 600.153C637.217 578.451 656.513 565.805 681.737 564.561C698.798 563.719 718.126 568.007 730.878 576.912C735.839 580.376 739.836 584.534 742.51 589.315C745.052 584.288 744.448 578.662 742.44 572.837C740.858 568.249 738.425 563.561 735.586 558.889C699.827 561.595 655.657 562.493 624.431 559.167C611.466 557.786 600.662 555.643 593.415 552.7C587.19 550.171 583.294 546.784 581.697 543.207C580.509 540.547 581.705 537.423 584.365 536.235C587.025 535.047 590.15 536.242 591.338 538.903C592.107 540.624 594.391 541.7 597.389 542.918C603.963 545.588 613.788 547.415 625.55 548.668C654.559 551.759 694.968 551.136 728.949 548.811C726.244 544.928 723.481 541.117 720.928 537.451C715.131 529.128 710.391 521.419 708.891 515.171C707.485 509.315 708.512 504.399 712.345 500.568C715.466 497.447 721.674 494.87 730.048 493.436C746.776 490.57 772.973 491.406 795.683 495.22C808.861 497.433 820.871 500.662 829.283 504.659C835.986 507.845 840.552 511.728 842.549 515.722C844.454 519.534 844.818 523.045 844.151 526.246C843.233 530.667 840.186 534.661 835.452 537.956C821.403 547.735 790.647 551.74 783.731 553.123C774.92 554.886 762.107 556.556 747.165 557.923C749.301 561.779 751.122 565.624 752.422 569.396C755.801 579.202 755.82 588.588 750.333 596.819C749.305 598.36 747.902 599.889 746.167 601.371C746.628 607.413 745.278 614.163 741.442 621.583C724.894 653.597 683.002 677.045 630.002 691.981C552.363 713.86 450.932 718.029 374.462 707.546C342.758 703.2 304.129 692.992 274.149 676.549C253.431 665.186 236.848 650.781 228.899 633.505C227.682 630.858 228.842 627.72 231.489 626.503C234.136 625.285 237.274 626.445 238.492 629.093C245.598 644.541 260.7 657.131 279.226 667.292C308.111 683.134 345.351 692.899 375.896 697.086C451.079 707.392 550.806 703.329 627.137 681.818C676.783 667.827 716.561 646.722 732.062 616.735C733.641 613.68 734.683 610.797 735.23 608.082ZM741.02 547.89C757.716 546.483 772.095 544.683 781.66 542.77C787.2 541.662 809.179 539.007 823.609 532.493C826.917 530.998 829.801 529.33 831.799 527.34C833.703 525.442 834.472 523.179 833.105 520.444C831.899 518.032 828.799 516.12 824.751 514.196C817.042 510.533 806.011 507.66 793.934 505.632C772.446 502.023 747.659 501.132 731.83 503.843C726.246 504.8 721.891 505.952 719.811 508.034C718.071 509.772 718.81 512.195 719.897 515.04C721.74 519.862 725.414 525.419 729.591 531.417C733.255 536.678 737.286 542.236 741.02 547.89ZM734.39 596.76C732.625 592.31 729.19 588.611 724.833 585.569C713.798 577.864 697.019 574.378 682.257 575.107C674.6 575.485 667.477 576.99 662.057 579.801C658.66 581.561 655.963 583.801 654.552 586.733C653.208 589.526 653.158 592.883 654.468 596.814C655.682 600.456 659.08 602.778 663.454 604.462C668.989 606.593 676.049 607.537 683.65 607.638C697.928 607.827 714.066 604.97 726.18 600.413C729.219 599.27 732.003 598.057 734.39 596.76Z" fill="white"/>
</g>
<defs>
<clipPath id="clip0_210_495">
<rect width="1080" height="1080" fill="white"/>
</clipPath>
</defs>
</svg>
