<svg width="601" height="489" viewBox="0 0 601 489" fill="none" xmlns="http://www.w3.org/2000/svg">
<path fill-rule="evenodd" clip-rule="evenodd" d="M600.02 24.4359C600.02 10.9496 589.07 0 575.584 0H24.4354C10.9494 0 0 10.9496 0 24.4359V464.28C0 477.767 10.9494 488.716 24.4354 488.716H575.584C589.07 488.716 600.02 477.767 600.02 464.28V24.4359Z" fill="#D7003A"/>
<path fill-rule="evenodd" clip-rule="evenodd" d="M77.6545 126.061C91.5034 127.859 110.829 128.596 133.045 128.735C205.949 129.192 309.264 122.185 356.799 118.473C369.725 87.2612 384.815 57.2621 394.372 41.1607C397.432 36.0062 399.974 32.2176 401.726 30.141C403.02 28.6097 404.178 27.7432 404.955 27.3548C407.027 26.319 410.112 25.7479 414.076 25.8991C421.237 26.1717 432.006 28.6949 444.518 32.713C485.209 45.7786 544.843 74.583 557.187 86.9264C559.996 89.7356 560.649 92.5534 560.253 95.0852C559.783 98.0876 557.292 101.277 552.844 103.752C541.412 110.114 515.306 113.856 514.702 113.949C469.366 120.924 421.925 122.574 376.096 126.558C372.837 126.842 368.565 127.199 363.428 127.609C355.081 148.287 347.916 169.148 344.249 186.393C341.866 197.601 340.92 207.177 342.389 213.961C343.416 218.696 345.818 221.713 350.535 221.713C353.192 221.713 355.35 223.871 355.35 226.528C355.35 229.186 353.192 231.344 350.535 231.344C345.498 231.344 341.621 229.744 338.69 226.996C335.946 224.424 334.002 220.731 332.978 215.999C331.293 208.226 332.098 197.235 334.829 184.39C338.331 167.917 344.954 148.207 352.762 128.444C303.178 132.244 203.791 138.81 132.984 138.366C95.5312 138.131 65.8984 135.691 55.0337 130.259C52.8597 129.172 52.3642 127.452 52.3565 125.958C52.3518 124.964 52.5689 123.57 53.9921 122.308C54.2399 122.088 54.6626 121.747 55.3522 121.445C55.8831 121.211 57.9137 120.633 61.2164 119.866C86.151 114.074 195.408 91.7088 234.4 75.5577C237.249 74.3774 240.046 72.8288 242.131 71.573C238.99 70.846 234.55 69.9163 230.105 69.3138C185.137 63.2095 73.7215 58.4739 29.6057 55.3233C26.9543 55.1339 24.9562 52.8279 25.1456 50.1765C25.335 47.5261 27.6401 45.527 30.2915 45.7164C74.5421 48.8776 186.296 53.6476 231.4 59.77C239.772 60.9063 245.968 62.1401 249.247 63.3635C252.21 64.4692 253.696 66.0856 254.266 67.2248C255.468 69.6294 255.385 72.2779 253.378 75.0278C251.394 77.7509 246.091 81.1397 238.085 84.4558C204.003 98.5735 116.724 117.466 77.6545 126.061ZM367.559 117.613C370.538 117.368 373.119 117.15 375.262 116.964C420.882 112.997 468.108 111.373 513.238 104.43C513.718 104.356 531.599 101.905 543.371 97.4831C545.478 96.6921 547.373 95.8456 548.876 94.9188C549.387 94.6031 549.984 94.0933 550.378 93.7375L550.377 93.7366C538.479 81.8379 480.799 54.4778 441.574 41.8828C431.665 38.7006 422.956 36.4663 416.501 35.7413C413.486 35.4027 411.113 35.2468 409.596 35.8235C409.016 36.581 405.627 41.0679 402.654 46.077C393.719 61.1291 379.83 88.5697 367.559 117.613Z" fill="white"/>
<path fill-rule="evenodd" clip-rule="evenodd" d="M582.418 89.3721C582.316 89.1608 581.851 88.2014 581.43 87.5644C579.844 85.1655 577.194 82.1545 573.958 78.8001C560.427 64.7781 537.034 45.4429 531.435 39.8446C529.556 37.9651 529.556 34.9139 531.435 33.0344C533.315 31.1549 536.366 31.1549 538.245 33.0344C543.861 38.6499 567.318 58.0493 580.888 72.1124C585.313 76.6988 588.726 80.8002 590.401 83.7815C591.58 85.8762 592.039 87.704 592.039 89.0737C592.039 91.7318 589.881 93.8896 587.224 93.8896C584.666 93.8896 582.572 91.8915 582.418 89.3721Z" fill="white"/>
<path fill-rule="evenodd" clip-rule="evenodd" d="M448.286 205.853C444.641 183.597 433.383 157.46 429.877 148.694C428.89 146.226 430.092 143.421 432.56 142.434C435.028 141.448 437.832 142.649 438.819 145.117C442.643 154.676 455.166 184.102 458.31 207.93C496.221 216.127 531.044 227.395 531.044 227.395C533.572 228.214 534.96 230.931 534.141 233.46C533.322 235.988 530.604 237.376 528.076 236.556C528.076 236.556 495.324 225.933 459.031 217.919C459.04 229.888 455.343 239.225 446.978 243.407C443.732 245.03 437.366 245.61 429.375 244.883C413.006 243.392 388.992 237.153 374.56 230.296C368.513 227.424 364.056 224.287 361.933 221.452C359.328 217.972 359.17 214.555 361.106 211.424C363.833 207.013 368.728 203.769 375.481 201.857C383.997 199.445 395.756 199.06 409.082 200.105C421.255 201.06 434.789 203.187 448.286 205.853ZM449.367 215.869C435.278 213.008 421.048 210.704 408.329 209.706C396.346 208.767 385.764 208.954 378.104 211.124C374.467 212.154 371.551 213.547 369.819 215.744C370.608 216.493 372.539 218.255 374.37 219.331C375.664 220.092 377.115 220.848 378.693 221.597C392.265 228.046 414.854 233.89 430.248 235.291C435.872 235.803 440.387 235.935 442.671 234.793C446.133 233.062 447.877 229.646 448.742 225.416C449.33 222.541 449.503 219.319 449.367 215.869Z" fill="white"/>
<path fill-rule="evenodd" clip-rule="evenodd" d="M193.054 192.148C192.251 184.476 190.248 175.837 187.401 166.63C171.15 114.061 127.327 43.6562 110.357 26.6853C108.477 24.8068 108.477 21.7546 110.357 19.8751C112.236 17.9966 115.287 17.9966 117.167 19.8751C134.628 37.3376 179.879 109.694 196.602 163.785C200.01 174.809 202.232 185.101 202.879 194.066C250.979 203.73 297.59 216.968 297.59 216.968C300.146 217.695 301.632 220.359 300.906 222.916C300.179 225.473 297.514 226.958 294.958 226.232C294.958 226.232 249.891 213.414 202.896 203.878C202.342 210.744 200.489 216.525 197.291 220.962C185.244 237.679 167.82 242.379 150.577 240.437C134.017 238.573 117.668 230.449 106.968 221.415C101.08 216.445 96.8855 211.141 94.9802 206.445C93.2968 202.296 93.2604 198.45 94.6971 195.231C96.6904 190.766 101.648 187.328 109.395 185.633C118.519 183.637 132.005 183.741 147.685 185.294C161.565 186.667 177.223 189.152 193.054 192.148ZM193.372 201.998C177.117 198.883 160.978 196.288 146.736 194.878C132.288 193.447 119.861 193.202 111.454 195.041C109.107 195.555 107.121 196.216 105.585 197.126C104.628 197.692 103.868 198.314 103.492 199.156C102.825 200.648 103.571 202.422 104.667 204.407C106.397 207.539 109.38 210.847 113.18 214.056C122.623 222.028 137.041 229.222 151.655 230.867C165.586 232.435 179.745 228.838 189.478 215.331C191.931 211.927 193.082 207.369 193.372 201.998Z" fill="white"/>
<path fill-rule="evenodd" clip-rule="evenodd" d="M138.029 326.597C131.437 316.62 128.889 306.305 132.242 296.247C133.196 293.383 135.772 290.65 140.21 288.666C144.876 286.579 151.991 285.08 160.747 284.231C192.736 281.129 247.8 286.18 279.401 294.492C290.804 297.492 299.288 301.107 303.182 304.691C306.107 307.385 307.122 310.323 306.771 313.114C306.46 315.589 304.95 318.366 301.28 320.879C295.976 324.509 284.682 328.352 265.487 331.842C252.988 334.115 183.558 336.11 161.954 336.11C161.06 336.11 160.165 336.111 159.27 336.113C171.296 347.03 187.109 357.077 201.581 365.376C218.898 375.307 234.397 382.755 239.905 386.184C241.865 387.403 242.97 388.518 243.391 389.144C244.118 390.228 244.297 391.244 244.297 392.059C244.297 394.717 242.14 396.875 239.482 396.875C237.905 396.875 236.504 396.116 235.626 394.942C233.367 393.764 214.653 383.974 196.79 373.73C178.679 363.345 158.676 350.231 145.647 336.175C119.447 336.341 93.2738 336.6 67.1849 333.991C64.5411 333.726 62.6081 331.365 62.873 328.72C63.137 326.075 65.4986 324.143 68.1433 324.408C91.3848 326.732 114.693 326.742 138.029 326.597ZM149.974 326.519C153.967 326.496 157.961 326.479 161.954 326.479C183.197 326.479 251.473 324.602 263.765 322.366C278.663 319.657 288.365 316.916 293.851 314.096C295.026 313.492 296.192 312.573 296.818 312.046C296.106 311.452 294.553 310.215 293.153 309.49C289.238 307.465 283.659 305.571 276.952 303.807C246.25 295.731 192.756 290.803 161.677 293.817C154.213 294.54 148.119 295.679 144.142 297.457C143.347 297.812 142.656 298.186 142.095 298.603C141.782 298.837 141.474 299.006 141.379 299.292C138.408 308.205 142.372 317.165 149.45 325.881C149.623 326.095 149.798 326.307 149.974 326.519Z" fill="white"/>
<path fill-rule="evenodd" clip-rule="evenodd" d="M47.048 395.847C44.4952 395.108 43.0232 392.435 43.7616 389.882C44.5009 387.33 47.1733 385.857 49.7262 386.596C133.695 410.903 216.453 406.102 300.247 406.102C302.904 406.102 305.062 408.26 305.062 410.917C305.062 413.575 302.904 415.733 300.247 415.733C215.553 415.733 131.92 420.414 47.048 395.847Z" fill="white"/>
<path fill-rule="evenodd" clip-rule="evenodd" d="M471.513 373.155C459.14 378.827 440.544 382.595 424.338 382.381C414.395 382.25 405.34 380.582 398.944 377.195C393.856 374.499 390.309 370.719 388.711 365.923C382.112 346.128 399.712 334.593 422.72 333.459C438.282 332.69 455.912 336.602 467.544 344.724C472.069 347.884 475.715 351.677 478.154 356.037C480.473 351.452 479.922 346.32 478.09 341.007C476.647 336.822 474.428 332.546 471.839 328.285C439.221 330.753 398.932 331.572 370.45 328.538C358.624 327.279 348.769 325.324 342.159 322.64C336.48 320.333 332.927 317.243 331.47 313.981C330.387 311.554 331.477 308.705 333.904 307.621C336.33 306.537 339.18 307.628 340.264 310.054C340.965 311.625 343.048 312.606 345.783 313.717C351.78 316.152 360.741 317.819 371.47 318.962C397.93 321.781 434.789 321.213 465.784 319.092C463.317 315.55 460.797 312.074 458.468 308.731C453.181 301.138 448.857 294.107 447.489 288.407C446.206 283.066 447.143 278.582 450.639 275.087C453.486 272.241 459.149 269.891 466.787 268.582C482.045 265.968 505.941 266.731 526.656 270.209C538.676 272.228 549.63 275.173 557.303 278.82C563.417 281.725 567.582 285.267 569.404 288.91C571.141 292.387 571.473 295.59 570.865 298.51C570.027 302.542 567.249 306.185 562.93 309.191C550.115 318.111 522.062 321.764 515.754 323.025C507.716 324.633 496.029 326.157 482.4 327.404C484.348 330.921 486.009 334.428 487.195 337.869C490.278 346.813 490.295 355.374 485.29 362.882C484.352 364.288 483.073 365.682 481.49 367.034C481.91 372.545 480.678 378.702 477.18 385.47C462.085 414.671 423.874 436.059 375.531 449.683C304.714 469.64 212.194 473.442 142.443 463.881C113.524 459.917 78.2886 450.606 50.9428 435.607C32.0456 425.242 16.9189 412.103 9.66874 396.345C8.55827 393.93 9.61709 391.068 12.0313 389.958C14.4454 388.847 17.3082 389.905 18.4186 392.32C24.9007 406.411 38.676 417.895 55.5741 427.163C81.9213 441.614 115.889 450.52 143.75 454.34C212.328 463.74 303.293 460.035 372.917 440.413C418.202 427.652 454.485 408.401 468.624 381.048C470.064 378.262 471.015 375.632 471.513 373.155ZM476.795 318.252C492.024 316.969 505.139 315.327 513.864 313.582C518.918 312.571 538.965 310.149 552.128 304.207C555.145 302.844 557.776 301.323 559.598 299.507C561.335 297.776 562.037 295.712 560.789 293.217C559.69 291.018 556.862 289.273 553.169 287.519C546.138 284.177 536.076 281.557 525.06 279.707C505.46 276.415 482.851 275.602 468.413 278.075C463.319 278.948 459.347 279.999 457.449 281.897C455.863 283.483 456.536 285.693 457.528 288.289C459.209 292.687 462.56 297.755 466.37 303.226C469.712 308.025 473.389 313.095 476.795 318.252ZM470.747 362.828C469.138 358.769 466.004 355.395 462.03 352.621C451.965 345.592 436.66 342.413 423.195 343.078C416.211 343.422 409.713 344.796 404.769 347.359C401.671 348.965 399.211 351.008 397.924 353.682C396.698 356.23 396.653 359.292 397.847 362.878C398.955 366.2 402.054 368.317 406.044 369.854C411.092 371.797 417.533 372.659 424.465 372.751C437.489 372.923 452.209 370.317 463.259 366.161C466.031 365.118 468.57 364.011 470.747 362.828Z" fill="white"/>
</svg>
