<svg width="1061" height="480" viewBox="0 0 1061 480" fill="none" xmlns="http://www.w3.org/2000/svg">
<path d="M149.26 203.12C151.607 203.973 152.78 205.2 152.78 206.8C152.78 207.76 152.247 208.773 151.18 209.84L150.06 210.96C148.673 212.347 147.18 213.04 145.58 213.04C145.153 213.04 144.727 212.987 144.3 212.88C143.873 212.667 143.393 212.507 142.86 212.4C139.66 211.12 135.98 209.947 131.82 208.88C127.66 207.707 123.287 206.693 118.7 205.84V217.2C118.7 225.733 115.18 232.347 108.14 237.04C101.207 241.733 91.66 244.08 79.5 244.08C71.0733 244.08 63.4467 242.853 56.62 240.4C49.9 237.947 44.5667 234.587 40.62 230.32C36.6733 226.053 34.7 221.253 34.7 215.92C34.7 211.013 36.62 206.8 40.46 203.28C44.3 199.653 49.6333 196.88 56.46 194.96C63.3933 192.933 71.4467 191.92 80.62 191.92C83.3933 191.92 86.22 192.027 89.1 192.24C92.0867 192.347 95.1267 192.56 98.22 192.88V177.52H42.22C38.7 177.52 36.94 175.92 36.94 172.72C36.94 169.52 38.7 167.92 42.22 167.92H98.22V150.32H42.22C38.7 150.32 36.94 148.72 36.94 145.52C36.94 142.32 38.7 140.72 42.22 140.72H98.22V127.6C98.22 124.08 99.98 122.32 103.5 122.32H113.42C116.94 122.32 118.7 124.08 118.7 127.6V140.72H144.3C147.82 140.72 149.58 142.32 149.58 145.52C149.58 148.72 147.82 150.32 144.3 150.32H118.7V167.92H144.3C147.82 167.92 149.58 169.52 149.58 172.72C149.58 175.92 147.82 177.52 144.3 177.52H118.7V195.76C124.673 196.827 130.327 198 135.66 199.28C140.993 200.56 145.527 201.84 149.26 203.12ZM55.18 215.92C55.18 228.293 63.2867 234.48 79.5 234.48C86.54 234.48 91.3933 233.253 94.06 230.8C96.8333 228.24 98.22 223.707 98.22 217.2V202.64C91.7133 201.893 85.8467 201.52 80.62 201.52C73.3667 201.52 67.9267 202.107 64.3 203.28C60.6733 204.453 58.22 206.107 56.94 208.24C55.7667 210.373 55.18 212.933 55.18 215.92ZM231.391 202.64C230.538 205.947 228.458 207.333 225.151 206.8L215.871 205.68C212.885 205.36 211.391 203.867 211.391 201.2C211.391 200.88 211.498 200.293 211.711 199.44L223.711 155.44H213.791C210.271 155.44 208.511 153.84 208.511 150.64C208.511 147.44 210.271 145.84 213.791 145.84H226.271L232.511 123.12C233.365 119.813 235.445 118.427 238.751 118.96L248.031 120.08C251.018 120.4 252.511 121.893 252.511 124.56C252.511 124.88 252.405 125.467 252.191 126.32L246.911 145.84H260.671C264.191 145.84 265.951 147.44 265.951 150.64C265.951 153.84 264.191 155.44 260.671 155.44H244.191L231.391 202.64ZM327.711 165.36C328.565 166.533 328.991 167.6 328.991 168.56C328.991 170.373 327.818 171.707 325.471 172.56L319.071 174.8C318.325 175.12 317.525 175.28 316.671 175.28C314.858 175.28 313.311 174.373 312.031 172.56L289.311 141.04C288.458 139.867 288.031 138.8 288.031 137.84C288.031 136.027 289.205 134.693 291.551 133.84L297.951 131.6C298.805 131.28 299.605 131.12 300.351 131.12C302.165 131.12 303.711 132.027 304.991 133.84L327.711 165.36ZM320.671 218C321.845 219.173 322.431 220.293 322.431 221.36C322.431 223.067 321.311 224.347 319.071 225.2L313.791 227.28C313.045 227.6 312.191 227.76 311.231 227.76C309.631 227.76 308.085 227.013 306.591 225.52C303.391 222.213 299.925 219.173 296.191 216.4V218.32C296.191 226.533 293.418 232.88 287.871 237.36C282.325 241.84 274.698 244.08 264.991 244.08C258.485 244.08 252.565 242.907 247.231 240.56C241.898 238.32 237.631 235.173 234.431 231.12C231.231 227.067 229.631 222.373 229.631 217.04C229.631 212.453 231.178 208.453 234.271 205.04C237.365 201.52 241.631 198.8 247.071 196.88C252.618 194.96 258.911 194 265.951 194C269.045 194 272.298 194.32 275.711 194.96V166.16C275.711 162.64 277.471 160.88 280.991 160.88H290.911C294.431 160.88 296.191 162.64 296.191 166.16V201.84C301.205 204.293 305.791 206.96 309.951 209.84C314.218 212.72 317.791 215.44 320.671 218ZM250.111 217.04C250.111 219.6 250.538 222.267 251.391 225.04C252.245 227.707 253.738 229.947 255.871 231.76C258.111 233.573 261.151 234.48 264.991 234.48C268.725 234.48 271.445 233.307 273.151 230.96C274.858 228.613 275.711 224.4 275.711 218.32V205.36C272.085 204.187 268.831 203.6 265.951 203.6C260.085 203.6 255.978 204.613 253.631 206.64C251.285 208.667 250.111 212.133 250.111 217.04ZM473.669 205.84C473.775 206.16 473.829 206.64 473.829 207.28C473.829 209.947 472.282 211.44 469.189 211.76L459.589 212.72C456.282 213.04 454.309 211.547 453.669 208.24L444.549 160.88H389.829C386.309 160.88 384.549 159.28 384.549 156.08C384.549 152.88 386.309 151.28 389.829 151.28H442.629L437.349 123.44C437.242 123.12 437.189 122.64 437.189 122C437.189 119.333 438.735 117.84 441.829 117.52L451.429 116.56C454.735 116.24 456.709 117.733 457.349 121.04L463.109 151.28H492.709C496.229 151.28 497.989 152.88 497.989 156.08C497.989 159.28 496.229 160.88 492.709 160.88H465.029L473.669 205.84ZM476.389 231.92C479.909 231.92 481.669 233.52 481.669 236.72C481.669 239.92 479.909 241.52 476.389 241.52H427.269C413.829 241.52 403.269 240.027 395.589 237.04C387.909 233.947 384.069 229.52 384.069 223.76C384.069 220.133 385.135 215.92 387.269 211.12C389.509 206.213 392.442 201.253 396.069 196.24C397.349 194.533 398.895 193.68 400.709 193.68C401.455 193.68 402.309 193.84 403.269 194.16L409.349 196.56C411.482 197.307 412.549 198.587 412.549 200.4C412.549 201.36 412.229 202.427 411.589 203.6C409.669 206.907 408.015 210.48 406.629 214.32C405.242 218.16 404.549 221.307 404.549 223.76C404.549 226.107 405.029 227.867 405.989 229.04C407.055 230.213 409.189 231.013 412.389 231.44C415.695 231.76 420.655 231.92 427.269 231.92H476.389ZM637.316 242.16C636.036 244.187 634.436 245.2 632.516 245.2C632.196 245.2 631.876 245.147 631.556 245.04C631.236 245.04 630.863 244.987 630.436 244.88L622.916 242.8C620.463 242.16 619.236 240.88 619.236 238.96C619.236 238 619.45 237.093 619.876 236.24C622.116 230.693 623.503 223.813 624.036 215.6C617.423 218.48 610.063 219.92 601.956 219.92C594.703 219.92 588.303 218.587 582.756 215.92C577.21 213.147 572.89 209.307 569.796 204.4C566.81 199.493 565.316 193.787 565.316 187.28C565.316 181.413 567.023 176.347 570.436 172.08C573.956 167.707 578.703 164.347 584.676 162C590.65 159.547 597.476 158.32 605.156 158.32C609.103 158.32 612.623 158.587 615.716 159.12C618.916 159.653 621.796 160.4 624.356 161.36V143.6H554.916C551.396 143.6 549.636 142 549.636 138.8C549.636 135.6 551.396 134 554.916 134H624.356V120.4C624.356 116.88 626.116 115.12 629.636 115.12H639.556C643.076 115.12 644.836 116.88 644.836 120.4V134H666.756C670.276 134 672.036 135.6 672.036 138.8C672.036 142 670.276 143.6 666.756 143.6H644.836V186.64C644.836 188.24 644.73 189.84 644.516 191.44C644.623 193.147 644.676 194.8 644.676 196.4C644.783 198 644.836 199.547 644.836 201.04V206.32C644.836 211.76 644.623 216.507 644.196 220.56C643.77 224.613 643.023 228.347 641.956 231.76C640.89 235.067 639.343 238.533 637.316 242.16ZM585.796 187.28C585.796 194.427 587.236 200.08 590.116 204.24C592.996 208.293 596.943 210.32 601.956 210.32C608.036 210.32 612.943 208.773 616.676 205.68C620.516 202.48 622.916 198 623.876 192.24C623.236 183.067 621.53 176.72 618.756 173.2C615.983 169.68 611.45 167.92 605.156 167.92C592.25 167.92 585.796 174.373 585.796 187.28Z" fill="white"/>
<path d="M94.72 353.392C94.72 354.757 94.2933 355.867 93.44 356.72C92.5867 357.573 91.5627 358 90.368 358H82.688C81.4933 358 80.4693 357.573 79.616 356.72C78.7627 355.781 78.336 354.629 78.336 353.264C78.336 343.28 78.2507 335.003 78.08 328.432C77.9947 321.776 77.7813 316.485 77.44 312.56C77.0987 308.635 76.5867 305.733 75.904 303.856C75.3067 301.893 74.4107 300.613 73.216 300.016C72.1067 299.419 70.6987 299.12 68.992 299.12C65.8347 299.12 63.232 300.272 61.184 302.576C59.136 304.795 58.112 308.421 58.112 313.456V353.648C58.112 355.781 57.088 357.147 55.04 357.744C54.9547 357.829 54.8693 357.872 54.784 357.872C54.6133 357.872 54.4853 357.915 54.4 358C54.3147 358 54.3147 358 54.4 358C54.2293 358 54.016 358 53.76 358H47.36C47.2747 358 47.232 358 47.232 358C47.0613 358 46.9333 358 46.848 358C46.6773 358 46.5067 357.957 46.336 357.872C46.336 357.872 46.2933 357.872 46.208 357.872C44.0747 357.36 43.008 355.952 43.008 353.648V353.264C43.008 343.28 42.88 335.003 42.624 328.432C42.4533 321.776 42.112 316.485 41.6 312.56C41.1733 308.635 40.576 305.733 39.808 303.856C39.04 301.893 38.016 300.613 36.736 300.016C35.5413 299.419 34.0907 299.12 32.384 299.12C29.2267 299.12 26.8373 300.272 25.216 302.576C23.5947 304.795 22.784 308.421 22.784 313.456V353.648C22.784 354.843 22.3573 355.867 21.504 356.72C20.6507 357.573 19.6267 358 18.432 358H10.752C9.55733 358 8.53333 357.573 7.68 356.72C6.82667 355.867 6.4 354.843 6.4 353.648V295.792C6.4 294.597 6.82667 293.573 7.68 292.72C8.53333 291.867 9.55733 291.44 10.752 291.44H18.432C19.7973 291.44 20.9067 291.952 21.76 292.976C25.0027 291.952 28.544 291.44 32.384 291.44C36.9067 291.44 40.6613 291.824 43.648 292.592C46.6347 293.36 49.0667 294.768 50.944 296.816C55.6373 293.232 61.6533 291.44 68.992 291.44C74.112 291.44 78.2507 291.995 81.408 293.104C84.6507 294.128 87.168 295.963 88.96 298.608C90.8373 301.168 92.16 304.795 92.928 309.488C93.696 314.181 94.1653 320.112 94.336 327.28C94.592 334.448 94.72 343.152 94.72 353.392ZM156.85 359.28C151.389 359.28 146.738 357.872 142.898 355.056C139.143 352.155 136.242 348.187 134.194 343.152C132.231 338.117 131.25 332.357 131.25 325.872C131.25 319.472 132.402 313.669 134.706 308.464C137.095 303.259 140.381 299.12 144.562 296.048C148.743 292.976 153.65 291.44 159.282 291.44C166.621 291.44 172.722 293.019 177.586 296.176C182.45 299.248 186.077 303.259 188.466 308.208C190.855 313.157 192.05 318.405 192.05 323.952C192.05 324.293 192.05 324.635 192.05 324.976C192.647 330.693 193.33 335.899 194.098 340.592C194.866 345.2 195.634 349.04 196.402 352.112C196.487 352.368 196.53 352.709 196.53 353.136C196.53 355.696 195.207 357.189 192.562 357.616L185.266 358.512C182.877 358.768 181.383 357.787 180.786 355.568C180.445 354.203 180.146 352.795 179.89 351.344C176.989 353.819 173.618 355.781 169.778 357.232C165.938 358.597 161.629 359.28 156.85 359.28ZM156.85 351.6C161.031 351.6 164.487 350.235 167.218 347.504C169.949 344.688 171.997 341.147 173.362 336.88C174.813 332.613 175.538 328.219 175.538 323.696C175.538 323.611 175.538 323.44 175.538 323.184C175.453 322.757 175.41 322.288 175.41 321.776C175.41 321.349 175.41 320.965 175.41 320.624C175.154 316.869 174.386 313.371 173.106 310.128C171.826 306.8 170.034 304.155 167.73 302.192C165.426 300.144 162.61 299.12 159.282 299.12C157.49 299.12 155.698 300.443 153.906 303.088C152.114 305.648 150.621 308.976 149.426 313.072C148.231 317.168 147.634 321.435 147.634 325.872C147.634 330.309 148.103 334.491 149.042 338.416C149.981 342.341 151.175 345.541 152.626 348.016C154.077 350.405 155.485 351.6 156.85 351.6ZM293.77 353.392C293.77 354.757 293.343 355.867 292.49 356.72C291.637 357.573 290.613 358 289.418 358H282.25C281.055 358 280.031 357.573 279.178 356.72C278.325 355.781 277.898 354.629 277.898 353.264C277.898 346.949 277.898 342.085 277.898 338.672C277.898 335.173 277.855 332.528 277.77 330.736C277.77 328.859 277.77 327.28 277.77 326C277.77 317.467 276.831 310.853 274.954 306.16C273.162 301.467 270.175 299.12 265.994 299.12C260.703 299.12 256.821 300.272 254.346 302.576C251.871 304.795 250.634 308.421 250.634 313.456V353.648C250.634 354.843 250.207 355.867 249.354 356.72C248.501 357.573 247.477 358 246.282 358H238.602C237.407 358 236.383 357.573 235.53 356.72C234.677 355.867 234.25 354.843 234.25 353.648V295.792C234.25 294.597 234.677 293.573 235.53 292.72C236.383 291.867 237.407 291.44 238.602 291.44H246.282C248.159 291.44 249.482 292.251 250.25 293.872C254.943 292.251 260.191 291.44 265.994 291.44C272.053 291.44 276.874 292.379 280.458 294.256C284.042 296.133 286.773 298.736 288.65 302.064C290.527 305.307 291.807 309.019 292.49 313.2C293.173 317.381 293.557 321.776 293.642 326.384C293.727 327.664 293.77 329.243 293.77 331.12C293.77 332.912 293.77 335.515 293.77 338.928C293.77 342.341 293.77 347.163 293.77 353.392ZM355.95 359.28C350.489 359.28 345.838 357.872 341.998 355.056C338.243 352.155 335.342 348.187 333.294 343.152C331.331 338.117 330.35 332.357 330.35 325.872C330.35 319.472 331.502 313.669 333.806 308.464C336.195 303.259 339.481 299.12 343.662 296.048C347.843 292.976 352.75 291.44 358.382 291.44C365.721 291.44 371.822 293.019 376.686 296.176C381.55 299.248 385.177 303.259 387.566 308.208C389.955 313.157 391.15 318.405 391.15 323.952C391.15 324.293 391.15 324.635 391.15 324.976C391.747 330.693 392.43 335.899 393.198 340.592C393.966 345.2 394.734 349.04 395.502 352.112C395.587 352.368 395.63 352.709 395.63 353.136C395.63 355.696 394.307 357.189 391.662 357.616L384.366 358.512C381.977 358.768 380.483 357.787 379.886 355.568C379.545 354.203 379.246 352.795 378.99 351.344C376.089 353.819 372.718 355.781 368.878 357.232C365.038 358.597 360.729 359.28 355.95 359.28ZM355.95 351.6C360.131 351.6 363.587 350.235 366.318 347.504C369.049 344.688 371.097 341.147 372.462 336.88C373.913 332.613 374.638 328.219 374.638 323.696C374.638 323.611 374.638 323.44 374.638 323.184C374.553 322.757 374.51 322.288 374.51 321.776C374.51 321.349 374.51 320.965 374.51 320.624C374.254 316.869 373.486 313.371 372.206 310.128C370.926 306.8 369.134 304.155 366.83 302.192C364.526 300.144 361.71 299.12 358.382 299.12C356.59 299.12 354.798 300.443 353.006 303.088C351.214 305.648 349.721 308.976 348.526 313.072C347.331 317.168 346.734 321.435 346.734 325.872C346.734 330.309 347.203 334.491 348.142 338.416C349.081 342.341 350.275 345.541 351.726 348.016C353.177 350.405 354.585 351.6 355.95 351.6ZM431.174 344.688C430.918 344.176 430.79 343.707 430.79 343.28C430.79 342.256 431.259 341.403 432.198 340.72C433.137 339.952 434.203 339.568 435.398 339.568H442.822C444.87 339.568 446.193 340.763 446.79 343.152C447.473 345.627 449.051 347.632 451.526 349.168C454.001 350.704 457.713 351.472 462.662 351.472C468.123 351.472 471.878 350.491 473.926 348.528C476.059 346.565 477.126 343.749 477.126 340.08C477.126 336.325 475.718 333.381 472.902 331.248C470.086 329.029 466.118 328.005 460.998 328.176C453.83 328.347 448.113 327.707 443.846 326.256C439.665 324.72 436.635 322.629 434.758 319.984C432.966 317.339 432.07 314.395 432.07 311.152C432.07 305.093 434.758 300.315 440.134 296.816C445.595 293.232 453.275 291.44 463.174 291.44C474.182 291.44 482.545 293.787 488.262 298.48C490.566 300.357 491.718 302.021 491.718 303.472C491.718 304.325 491.377 304.965 490.694 305.392L488.518 307.056C487.665 307.653 486.854 307.952 486.086 307.952C485.233 307.952 484.55 307.739 484.038 307.312C480.369 304.581 476.827 302.533 473.414 301.168C470.086 299.803 466.673 299.12 463.174 299.12C458.395 299.12 454.726 300.272 452.166 302.576C449.691 304.795 448.454 307.653 448.454 311.152C448.454 314.48 449.393 316.869 451.27 318.32C453.233 319.771 456.475 320.496 460.998 320.496C466.801 320.496 472.177 321.264 477.126 322.8C482.075 324.336 486.043 326.597 489.03 329.584C492.017 332.485 493.51 335.984 493.51 340.08C493.51 343.749 492.187 347.035 489.542 349.936C486.897 352.837 483.227 355.099 478.534 356.72C473.926 358.341 468.635 359.152 462.662 359.152C454.897 359.152 448.155 357.744 442.438 354.928C436.806 352.112 433.051 348.699 431.174 344.688ZM554.925 359.28C549.464 359.28 544.813 357.872 540.973 355.056C537.218 352.155 534.317 348.187 532.269 343.152C530.306 338.117 529.325 332.357 529.325 325.872C529.325 319.472 530.477 313.669 532.781 308.464C535.17 303.259 538.456 299.12 542.637 296.048C546.818 292.976 551.725 291.44 557.357 291.44C564.696 291.44 570.797 293.019 575.661 296.176C580.525 299.248 584.152 303.259 586.541 308.208C588.93 313.157 590.125 318.405 590.125 323.952C590.125 324.293 590.125 324.635 590.125 324.976C590.722 330.693 591.405 335.899 592.173 340.592C592.941 345.2 593.709 349.04 594.477 352.112C594.562 352.368 594.605 352.709 594.605 353.136C594.605 355.696 593.282 357.189 590.637 357.616L583.341 358.512C580.952 358.768 579.458 357.787 578.861 355.568C578.52 354.203 578.221 352.795 577.965 351.344C575.064 353.819 571.693 355.781 567.853 357.232C564.013 358.597 559.704 359.28 554.925 359.28ZM554.925 351.6C559.106 351.6 562.562 350.235 565.293 347.504C568.024 344.688 570.072 341.147 571.437 336.88C572.888 332.613 573.613 328.219 573.613 323.696C573.613 323.611 573.613 323.44 573.613 323.184C573.528 322.757 573.485 322.288 573.485 321.776C573.485 321.349 573.485 320.965 573.485 320.624C573.229 316.869 572.461 313.371 571.181 310.128C569.901 306.8 568.109 304.155 565.805 302.192C563.501 300.144 560.685 299.12 557.357 299.12C555.565 299.12 553.773 300.443 551.981 303.088C550.189 305.648 548.696 308.976 547.501 313.072C546.306 317.168 545.709 321.435 545.709 325.872C545.709 330.309 546.178 334.491 547.117 338.416C548.056 342.341 549.25 345.541 550.701 348.016C552.152 350.405 553.56 351.6 554.925 351.6ZM630.149 344.688C629.893 344.176 629.765 343.707 629.765 343.28C629.765 342.256 630.234 341.403 631.173 340.72C632.112 339.952 633.178 339.568 634.373 339.568H641.797C643.845 339.568 645.168 340.763 645.765 343.152C646.448 345.627 648.026 347.632 650.501 349.168C652.976 350.704 656.688 351.472 661.637 351.472C667.098 351.472 670.853 350.491 672.901 348.528C675.034 346.565 676.101 343.749 676.101 340.08C676.101 336.325 674.693 333.381 671.877 331.248C669.061 329.029 665.093 328.005 659.973 328.176C652.805 328.347 647.088 327.707 642.821 326.256C638.64 324.72 635.61 322.629 633.733 319.984C631.941 317.339 631.045 314.395 631.045 311.152C631.045 305.093 633.733 300.315 639.109 296.816C644.57 293.232 652.25 291.44 662.149 291.44C673.157 291.44 681.52 293.787 687.237 298.48C689.541 300.357 690.693 302.021 690.693 303.472C690.693 304.325 690.352 304.965 689.669 305.392L687.493 307.056C686.64 307.653 685.829 307.952 685.061 307.952C684.208 307.952 683.525 307.739 683.013 307.312C679.344 304.581 675.802 302.533 672.389 301.168C669.061 299.803 665.648 299.12 662.149 299.12C657.37 299.12 653.701 300.272 651.141 302.576C648.666 304.795 647.429 307.653 647.429 311.152C647.429 314.48 648.368 316.869 650.245 318.32C652.208 319.771 655.45 320.496 659.973 320.496C665.776 320.496 671.152 321.264 676.101 322.8C681.05 324.336 685.018 326.597 688.005 329.584C690.992 332.485 692.485 335.984 692.485 340.08C692.485 343.749 691.162 347.035 688.517 349.936C685.872 352.837 682.202 355.099 677.509 356.72C672.901 358.341 667.61 359.152 661.637 359.152C653.872 359.152 647.13 357.744 641.413 354.928C635.781 352.112 632.026 348.699 630.149 344.688Z" fill="white"/>
<path fill-rule="evenodd" clip-rule="evenodd" d="M743.118 159.522C743.118 159.522 723.934 118.141 737.13 108.693C744.13 103.681 752.076 127.864 752.076 127.864" fill="white"/>
<path fill-rule="evenodd" clip-rule="evenodd" d="M744.48 158.89C744.829 159.642 744.501 160.536 743.749 160.885C742.998 161.233 742.104 160.906 741.756 160.154C741.756 160.154 732.236 139.577 731.106 123.947C730.585 116.737 731.933 110.567 736.256 107.472C738.988 105.516 741.931 106.626 744.573 109.632C749.458 115.191 753.502 127.395 753.502 127.395C753.761 128.182 753.331 129.032 752.544 129.29C751.757 129.549 750.908 129.12 750.649 128.332C750.649 128.332 746.907 116.837 742.317 111.615C741.638 110.842 740.95 110.216 740.242 109.837C739.499 109.44 738.742 109.386 738.004 109.914C734.408 112.488 733.668 117.734 734.101 123.731C735.199 138.914 744.48 158.89 744.48 158.89Z" fill="#023563"/>
<path fill-rule="evenodd" clip-rule="evenodd" d="M868.297 381.406C868.297 381.406 737.703 370.175 738.091 211.453C738.353 104.257 810.561 -16.1382 929.973 3.65533C1072.98 27.3589 1071.18 259.37 1047.3 318.907C1015 399.423 951.629 392.645 951.629 392.645C951.629 392.645 989.357 399.317 983.426 428.006C975.175 467.923 921.101 488.749 898.239 473.365C854.053 443.627 908.866 401.417 908.866 401.417C908.866 401.417 867.261 460.594 798.123 424.443C769.63 409.545 802.453 390.735 819.136 386.455C836.785 381.927 868.297 381.406 868.297 381.406Z" fill="white"/>
<path fill-rule="evenodd" clip-rule="evenodd" d="M886.565 423.996C867.251 436.589 836.708 446.313 797.427 425.773C789.717 421.742 786.283 417.325 785.56 413.076C784.817 408.723 786.867 404.371 790.599 400.434C797.507 393.146 810.2 387.197 818.763 385C828.967 382.382 843.773 381.091 854.533 380.465C837.654 376.466 808.033 366.239 782.694 340.906C757.465 315.682 736.433 275.475 736.589 211.449C736.853 103.393 809.848 -17.779 930.219 2.17365C987.992 11.7501 1022.43 54.9188 1041.34 107.207C1069.56 185.253 1063.09 283.563 1048.69 319.466C1023.93 381.192 981.101 392.273 961.631 394C964.417 395.059 967.516 396.46 970.528 398.282C979.696 403.824 988.025 413.177 984.897 428.31C979.834 452.804 957.951 470.323 936.164 476.977C921.475 481.467 906.859 480.976 897.401 474.61C888.216 468.429 883.183 461.698 880.951 454.934C877.592 444.755 880.563 434.42 885.68 425.492C885.969 424.989 886.264 424.49 886.565 423.996ZM891.769 416.548C899.456 406.77 907.95 400.227 907.95 400.227C908.538 399.774 909.369 399.819 909.905 400.332C910.441 400.845 910.521 401.673 910.095 402.28C910.095 402.28 904.456 410.311 893.875 418.721C891.889 421.274 889.968 424.05 888.286 426.986C883.587 435.182 880.719 444.647 883.803 453.992C885.866 460.244 890.588 466.405 899.077 472.119C907.909 478.063 921.57 478.293 935.286 474.105C956.106 467.746 977.118 451.108 981.956 427.702C984.758 414.145 977.188 405.817 968.974 400.852C960.531 395.747 951.367 394.124 951.367 394.124C950.57 393.982 950.028 393.235 950.142 392.434C950.255 391.633 950.984 391.066 951.789 391.151C951.789 391.151 1014.08 397.664 1045.9 318.348C1060.16 282.806 1066.45 185.49 1038.51 108.228C1019.98 56.9755 986.356 14.523 929.728 5.13623C811.274 -14.4981 739.852 105.121 739.592 211.457C739.438 274.409 760.011 313.981 784.817 338.782C821.935 375.891 868.426 379.91 868.426 379.91C869.222 379.978 869.825 380.659 869.798 381.458C869.77 382.257 869.121 382.894 868.321 382.907C868.321 382.907 837.033 383.413 819.51 387.909C811.389 389.992 799.329 395.589 792.778 402.5C789.78 405.663 787.924 409.074 788.52 412.571C789.134 416.174 792.281 419.694 798.818 423.112C841.792 445.582 873.945 430.593 891.769 416.548Z" fill="#023563"/>
<path fill-rule="evenodd" clip-rule="evenodd" d="M946.62 160.016C945.986 160.55 945.038 160.468 944.504 159.833C943.971 159.199 944.052 158.251 944.686 157.718C944.686 157.718 955.473 148.675 962.794 145.864C964.593 145.173 966.219 144.855 967.494 144.996C969.195 145.183 970.43 146.054 971.003 147.812C976.979 166.136 960.693 182.613 960.693 182.613C960.109 183.2 959.157 183.202 958.57 182.618C957.983 182.033 957.98 181.082 958.565 180.494C958.565 180.494 963.991 175.031 967.148 167.015C969.217 161.76 970.315 155.388 968.148 148.743C967.939 148.101 967.385 147.941 966.7 147.967C965.88 147.999 964.92 148.264 963.87 148.667C956.886 151.35 946.62 160.016 946.62 160.016Z" fill="#023563"/>
<path fill-rule="evenodd" clip-rule="evenodd" d="M818.97 74.2667C819.656 73.8017 820.591 73.9814 821.056 74.6676C821.52 75.3534 821.34 76.2878 820.655 76.7528C820.655 76.7528 818.397 78.2834 816.827 80.5818C815.438 82.6139 814.603 85.3277 817.037 88.0455C820.029 91.3845 826.158 93.5392 832.244 94.6198C838.34 95.7019 844.431 95.7085 847.401 94.4086C849.293 93.5802 849.873 91.8059 849.981 90.0316C850.174 86.8628 848.887 83.5689 848.887 83.5689C848.587 82.7966 848.971 81.9257 849.743 81.6259C850.516 81.3255 851.387 81.7094 851.687 82.4817C851.687 82.4817 853.21 86.4243 852.979 90.2148C852.804 93.0802 851.662 95.8216 848.605 97.16C845.296 98.6085 838.512 98.7821 831.719 97.5764C824.916 96.3691 818.144 93.7815 814.801 90.0491C811.159 85.9834 812.27 81.9282 814.347 78.8875C816.243 76.1131 818.97 74.2667 818.97 74.2667Z" fill="#023563"/>
<path fill-rule="evenodd" clip-rule="evenodd" d="M883.591 85.318C884.396 85.1183 885.211 85.6093 885.411 86.4131C885.611 87.2174 885.12 88.0328 884.316 88.2325C884.316 88.2325 880.232 89.19 879.204 92.636C878.747 94.1676 878.937 96.1532 880.204 98.7324C880.45 99.2324 880.947 99.7129 881.595 100.211C882.812 101.146 884.531 102.054 886.531 102.909C891.405 104.99 897.911 106.714 903.276 107.494C906.666 107.987 909.574 108.133 911.224 107.665C914.802 106.648 915.984 104.054 916.275 101.719C916.589 99.2079 915.945 96.9695 915.945 96.9695C915.714 96.1732 916.173 95.3398 916.969 95.1091C917.765 94.8784 918.599 95.3373 918.829 96.1332C918.829 96.1332 919.648 98.9406 919.255 102.091C918.839 105.418 917.144 109.104 912.044 110.553C910.587 110.968 908.296 111.042 905.555 110.791C899.568 110.243 891.297 108.21 885.352 105.671C881.367 103.969 878.428 101.928 877.509 100.057C875.793 96.5646 875.707 93.8508 876.326 91.7777C877.808 86.812 883.591 85.318 883.591 85.318Z" fill="#023563"/>
<path fill-rule="evenodd" clip-rule="evenodd" d="M852.348 91.8609C851.519 91.8923 850.822 91.2453 850.791 90.417C850.759 89.5891 851.406 88.8914 852.234 88.86C857.358 88.6661 862.653 89.3264 866.274 89.9331C869.549 90.4818 873.26 91.4616 877.894 93.0716C878.677 93.344 879.091 94.2005 878.819 94.9829C878.547 95.7659 877.691 96.1807 876.908 95.9083C872.469 94.3659 868.915 93.4205 865.778 92.895C862.314 92.3147 857.249 91.6755 852.348 91.8609Z" fill="#023563"/>
<path fill-rule="evenodd" clip-rule="evenodd" d="M867.074 99.9836C875.848 96.1571 884.567 100.885 889.476 108.25C894.389 115.62 895.361 125.494 889.089 131.687C885.278 135.45 881.24 136.714 877.417 136.338C871.84 135.789 866.63 131.62 863.212 126.156C857.457 116.959 856.949 104.4 867.074 99.9836ZM868.275 102.736C864.219 104.506 862.389 107.93 862.128 111.819C861.85 115.973 863.296 120.629 865.758 124.564C868.659 129.201 872.977 132.884 877.71 133.349C880.759 133.649 883.941 132.55 886.978 129.551C892.232 124.362 891.092 116.089 886.977 109.915C882.859 103.736 875.636 99.5261 868.275 102.736Z" fill="#023563"/>
<path fill-rule="evenodd" clip-rule="evenodd" d="M859.337 98.5147C861.477 100.082 862.54 102.447 862.671 105.265C862.845 109.013 861.305 113.631 858.679 117.91C856.104 122.106 852.503 125.974 848.607 128.379C844.871 130.684 840.859 131.643 837.149 130.509C834.661 129.749 832.279 128.049 830.214 125.082C826.653 119.967 827.427 112.404 831.052 106.079C836.445 96.6713 847.891 90.1335 859.337 98.5147ZM857.563 100.938C847.864 93.8363 838.227 99.6013 833.658 107.573C830.642 112.834 829.716 119.112 832.679 123.366C834.283 125.672 836.093 127.046 838.027 127.637C840.95 128.53 844.086 127.64 847.029 125.823C850.553 123.649 853.791 120.133 856.119 116.339C858.033 113.221 859.337 109.914 859.624 106.999C859.872 104.471 859.362 102.255 857.563 100.938Z" fill="#023563"/>
<path fill-rule="evenodd" clip-rule="evenodd" d="M894.106 59.3323C892.445 53.8508 896.929 49.685 902.453 48.3465C905.604 47.5831 909.016 47.7611 911.541 49.0169C913.412 49.9475 914.826 51.4464 915.434 53.5608C916.923 58.7371 912.594 63.1772 907.209 64.7311C901.849 66.2776 895.793 64.8991 894.106 59.3323ZM896.98 58.4615C898.169 62.3842 902.599 62.9356 906.377 61.8453C908.371 61.27 910.23 60.216 911.44 58.8065C912.496 57.5773 913.029 56.0634 912.548 54.3912C912.086 52.7854 910.806 51.817 909.236 51.3169C907.416 50.7376 905.216 50.7676 903.16 51.2653C899.362 52.1856 895.838 54.6929 896.98 58.4615Z" fill="#023563"/>
<path fill-rule="evenodd" clip-rule="evenodd" d="M847.077 52.0111C842.034 55.9312 835.967 54.2991 832.494 50.669C830.349 48.4265 829.223 45.4394 829.801 42.5572C830.187 40.6305 831.326 38.7188 833.523 37.1089C837.398 34.2693 842.981 36.0612 846.5 39.6262C850.157 43.3318 851.417 48.6369 847.077 52.0111ZM845.234 49.6403C848.017 47.4758 846.709 44.1125 844.362 41.7355C843.052 40.4081 841.374 39.3537 839.656 38.9054C838.134 38.5088 836.576 38.5949 835.298 39.5311C833.824 40.6112 833.005 41.8551 832.745 43.1474C832.355 45.0943 833.215 47.0782 834.664 48.593C837.183 51.2259 841.577 52.4835 845.234 49.6403Z" fill="#023563"/>
<path fill-rule="evenodd" clip-rule="evenodd" d="M900.899 67.6977C901.947 68.1634 902.782 69.313 903.269 71.0311C904.202 74.3184 903.992 79.8817 902.945 85.2913C902.05 89.9146 900.549 94.4205 898.703 97.2949C897.282 99.5057 895.595 100.766 893.883 100.777C891.718 100.791 890.244 99.2059 889.563 96.4836C888.719 93.1086 889.067 87.8619 890.191 82.767C891.51 76.7852 893.914 71.0367 896.521 68.696C897.937 67.4255 899.436 67.0481 900.899 67.6977ZM900.086 69.5274C899.516 69.274 898.946 69.41 898.386 69.7757C897.887 70.1018 897.402 70.5945 896.927 71.2095C894.923 73.8027 893.197 78.4348 892.146 83.1983C891.097 87.9536 890.717 92.8477 891.505 95.9974C891.913 97.628 892.574 98.7831 893.871 98.7747C895.039 98.7671 896.049 97.722 897.018 96.2128C898.755 93.5089 900.137 89.2599 900.979 84.911C901.824 80.5498 902.123 76.0835 901.635 72.9492C901.486 71.9895 901.266 71.1639 900.951 70.5252C900.718 70.0528 900.452 69.6901 900.086 69.5274Z" fill="#023563"/>
<path fill-rule="evenodd" clip-rule="evenodd" d="M900.492 68.6134C893.098 65.3279 885.228 99.8314 893.877 99.7765C901.073 99.7307 906.038 71.0771 900.492 68.6134Z" fill="#023563"/>
<path fill-rule="evenodd" clip-rule="evenodd" d="M837.444 55.578C838.92 56.1621 839.836 57.7632 840.093 60.1155C840.587 64.6496 838.76 72.2218 836.36 78.4131C834.74 82.5908 832.852 86.136 831.29 87.7554C830.32 88.7615 829.354 89.0874 828.606 88.9098C826.815 88.4834 825.669 86.9378 825.21 84.5713C824.322 79.996 826.004 72.0785 828.533 65.701C830.252 61.3681 832.379 57.7567 834.275 56.2808C835.389 55.4141 836.482 55.1975 837.444 55.578ZM829.049 86.9569C829.068 86.9514 829.126 86.934 829.161 86.9176C829.228 86.8861 829.296 86.8439 829.366 86.794C829.703 86.5551 830.058 86.1691 830.434 85.6749C831.744 83.9571 833.197 81.0328 834.493 77.6896C836.456 72.6262 838.052 66.6024 838.168 62.2597C838.204 60.9174 838.102 59.7472 837.797 58.8425C837.569 58.1665 837.245 57.6521 836.707 57.4394C836.505 57.3595 836.29 57.4086 836.065 57.5104C835.665 57.6911 835.259 58.031 834.836 58.4803C833.316 60.0993 831.742 63.0408 830.394 66.4391C828.341 71.6152 826.83 77.854 826.974 82.26C827.018 83.6062 827.212 84.7691 827.627 85.6432C827.945 86.3137 828.395 86.7933 829.049 86.9569Z" fill="#023563"/>
<path fill-rule="evenodd" clip-rule="evenodd" d="M837.075 56.5098C831.503 54.3052 820.835 86.0332 828.838 87.9372C832.976 88.9219 843.678 59.1225 837.075 56.5098Z" fill="#023563"/>
</svg>
