<svg width="1062" height="480" viewBox="0 0 1062 480" fill="none" xmlns="http://www.w3.org/2000/svg">
<path d="M149.76 205.12C152.107 205.973 153.28 207.2 153.28 208.8C153.28 209.76 152.747 210.773 151.68 211.84L150.56 212.96C149.173 214.347 147.68 215.04 146.08 215.04C145.653 215.04 145.227 214.987 144.8 214.88C144.373 214.667 143.893 214.507 143.36 214.4C140.16 213.12 136.48 211.947 132.32 210.88C128.16 209.707 123.787 208.693 119.2 207.84V219.2C119.2 227.733 115.68 234.347 108.64 239.04C101.707 243.733 92.16 246.08 80 246.08C71.5733 246.08 63.9467 244.853 57.12 242.4C50.4 239.947 45.0667 236.587 41.12 232.32C37.1733 228.053 35.2 223.253 35.2 217.92C35.2 213.013 37.12 208.8 40.96 205.28C44.8 201.653 50.1333 198.88 56.96 196.96C63.8933 194.933 71.9467 193.92 81.12 193.92C83.8933 193.92 86.72 194.027 89.6 194.24C92.5867 194.347 95.6267 194.56 98.72 194.88V179.52H42.72C39.2 179.52 37.44 177.92 37.44 174.72C37.44 171.52 39.2 169.92 42.72 169.92H98.72V152.32H42.72C39.2 152.32 37.44 150.72 37.44 147.52C37.44 144.32 39.2 142.72 42.72 142.72H98.72V129.6C98.72 126.08 100.48 124.32 104 124.32H113.92C117.44 124.32 119.2 126.08 119.2 129.6V142.72H144.8C148.32 142.72 150.08 144.32 150.08 147.52C150.08 150.72 148.32 152.32 144.8 152.32H119.2V169.92H144.8C148.32 169.92 150.08 171.52 150.08 174.72C150.08 177.92 148.32 179.52 144.8 179.52H119.2V197.76C125.173 198.827 130.827 200 136.16 201.28C141.493 202.56 146.027 203.84 149.76 205.12ZM55.68 217.92C55.68 230.293 63.7867 236.48 80 236.48C87.04 236.48 91.8933 235.253 94.56 232.8C97.3333 230.24 98.72 225.707 98.72 219.2V204.64C92.2133 203.893 86.3467 203.52 81.12 203.52C73.8667 203.52 68.4267 204.107 64.8 205.28C61.1733 206.453 58.72 208.107 57.44 210.24C56.2667 212.373 55.68 214.933 55.68 217.92ZM231.891 204.64C231.038 207.947 228.958 209.333 225.651 208.8L216.371 207.68C213.385 207.36 211.891 205.867 211.891 203.2C211.891 202.88 211.998 202.293 212.211 201.44L224.211 157.44H214.291C210.771 157.44 209.011 155.84 209.011 152.64C209.011 149.44 210.771 147.84 214.291 147.84H226.771L233.011 125.12C233.865 121.813 235.945 120.427 239.251 120.96L248.531 122.08C251.518 122.4 253.011 123.893 253.011 126.56C253.011 126.88 252.905 127.467 252.691 128.32L247.411 147.84H261.171C264.691 147.84 266.451 149.44 266.451 152.64C266.451 155.84 264.691 157.44 261.171 157.44H244.691L231.891 204.64ZM328.211 167.36C329.065 168.533 329.491 169.6 329.491 170.56C329.491 172.373 328.318 173.707 325.971 174.56L319.571 176.8C318.825 177.12 318.025 177.28 317.171 177.28C315.358 177.28 313.811 176.373 312.531 174.56L289.811 143.04C288.958 141.867 288.531 140.8 288.531 139.84C288.531 138.027 289.705 136.693 292.051 135.84L298.451 133.6C299.305 133.28 300.105 133.12 300.851 133.12C302.665 133.12 304.211 134.027 305.491 135.84L328.211 167.36ZM321.171 220C322.345 221.173 322.931 222.293 322.931 223.36C322.931 225.067 321.811 226.347 319.571 227.2L314.291 229.28C313.545 229.6 312.691 229.76 311.731 229.76C310.131 229.76 308.585 229.013 307.091 227.52C303.891 224.213 300.425 221.173 296.691 218.4V220.32C296.691 228.533 293.918 234.88 288.371 239.36C282.825 243.84 275.198 246.08 265.491 246.08C258.985 246.08 253.065 244.907 247.731 242.56C242.398 240.32 238.131 237.173 234.931 233.12C231.731 229.067 230.131 224.373 230.131 219.04C230.131 214.453 231.678 210.453 234.771 207.04C237.865 203.52 242.131 200.8 247.571 198.88C253.118 196.96 259.411 196 266.451 196C269.545 196 272.798 196.32 276.211 196.96V168.16C276.211 164.64 277.971 162.88 281.491 162.88H291.411C294.931 162.88 296.691 164.64 296.691 168.16V203.84C301.705 206.293 306.291 208.96 310.451 211.84C314.718 214.72 318.291 217.44 321.171 220ZM250.611 219.04C250.611 221.6 251.038 224.267 251.891 227.04C252.745 229.707 254.238 231.947 256.371 233.76C258.611 235.573 261.651 236.48 265.491 236.48C269.225 236.48 271.945 235.307 273.651 232.96C275.358 230.613 276.211 226.4 276.211 220.32V207.36C272.585 206.187 269.331 205.6 266.451 205.6C260.585 205.6 256.478 206.613 254.131 208.64C251.785 210.667 250.611 214.133 250.611 219.04ZM474.169 207.84C474.275 208.16 474.329 208.64 474.329 209.28C474.329 211.947 472.782 213.44 469.689 213.76L460.089 214.72C456.782 215.04 454.809 213.547 454.169 210.24L445.049 162.88H390.329C386.809 162.88 385.049 161.28 385.049 158.08C385.049 154.88 386.809 153.28 390.329 153.28H443.129L437.849 125.44C437.742 125.12 437.689 124.64 437.689 124C437.689 121.333 439.235 119.84 442.329 119.52L451.929 118.56C455.235 118.24 457.209 119.733 457.849 123.04L463.609 153.28H493.209C496.729 153.28 498.489 154.88 498.489 158.08C498.489 161.28 496.729 162.88 493.209 162.88H465.529L474.169 207.84ZM476.889 233.92C480.409 233.92 482.169 235.52 482.169 238.72C482.169 241.92 480.409 243.52 476.889 243.52H427.769C414.329 243.52 403.769 242.027 396.089 239.04C388.409 235.947 384.569 231.52 384.569 225.76C384.569 222.133 385.635 217.92 387.769 213.12C390.009 208.213 392.942 203.253 396.569 198.24C397.849 196.533 399.395 195.68 401.209 195.68C401.955 195.68 402.809 195.84 403.769 196.16L409.849 198.56C411.982 199.307 413.049 200.587 413.049 202.4C413.049 203.36 412.729 204.427 412.089 205.6C410.169 208.907 408.515 212.48 407.129 216.32C405.742 220.16 405.049 223.307 405.049 225.76C405.049 228.107 405.529 229.867 406.489 231.04C407.555 232.213 409.689 233.013 412.889 233.44C416.195 233.76 421.155 233.92 427.769 233.92H476.889ZM637.816 244.16C636.536 246.187 634.936 247.2 633.016 247.2C632.696 247.2 632.376 247.147 632.056 247.04C631.736 247.04 631.363 246.987 630.936 246.88L623.416 244.8C620.963 244.16 619.736 242.88 619.736 240.96C619.736 240 619.95 239.093 620.376 238.24C622.616 232.693 624.003 225.813 624.536 217.6C617.923 220.48 610.563 221.92 602.456 221.92C595.203 221.92 588.803 220.587 583.256 217.92C577.71 215.147 573.39 211.307 570.296 206.4C567.31 201.493 565.816 195.787 565.816 189.28C565.816 183.413 567.523 178.347 570.936 174.08C574.456 169.707 579.203 166.347 585.176 164C591.15 161.547 597.976 160.32 605.656 160.32C609.603 160.32 613.123 160.587 616.216 161.12C619.416 161.653 622.296 162.4 624.856 163.36V145.6H555.416C551.896 145.6 550.136 144 550.136 140.8C550.136 137.6 551.896 136 555.416 136H624.856V122.4C624.856 118.88 626.616 117.12 630.136 117.12H640.056C643.576 117.12 645.336 118.88 645.336 122.4V136H667.256C670.776 136 672.536 137.6 672.536 140.8C672.536 144 670.776 145.6 667.256 145.6H645.336V188.64C645.336 190.24 645.23 191.84 645.016 193.44C645.123 195.147 645.176 196.8 645.176 198.4C645.283 200 645.336 201.547 645.336 203.04V208.32C645.336 213.76 645.123 218.507 644.696 222.56C644.27 226.613 643.523 230.347 642.456 233.76C641.39 237.067 639.843 240.533 637.816 244.16ZM586.296 189.28C586.296 196.427 587.736 202.08 590.616 206.24C593.496 210.293 597.443 212.32 602.456 212.32C608.536 212.32 613.443 210.773 617.176 207.68C621.016 204.48 623.416 200 624.376 194.24C623.736 185.067 622.03 178.72 619.256 175.2C616.483 171.68 611.95 169.92 605.656 169.92C592.75 169.92 586.296 176.373 586.296 189.28Z" fill="white"/>
<path d="M94.72 355.392C94.72 356.757 94.2933 357.867 93.44 358.72C92.5867 359.573 91.5627 360 90.368 360H82.688C81.4933 360 80.4693 359.573 79.616 358.72C78.7627 357.781 78.336 356.629 78.336 355.264C78.336 345.28 78.2507 337.003 78.08 330.432C77.9947 323.776 77.7813 318.485 77.44 314.56C77.0987 310.635 76.5867 307.733 75.904 305.856C75.3067 303.893 74.4107 302.613 73.216 302.016C72.1067 301.419 70.6987 301.12 68.992 301.12C65.8347 301.12 63.232 302.272 61.184 304.576C59.136 306.795 58.112 310.421 58.112 315.456V355.648C58.112 357.781 57.088 359.147 55.04 359.744C54.9547 359.829 54.8693 359.872 54.784 359.872C54.6133 359.872 54.4853 359.915 54.4 360C54.3147 360 54.3147 360 54.4 360C54.2293 360 54.016 360 53.76 360H47.36C47.2747 360 47.232 360 47.232 360C47.0613 360 46.9333 360 46.848 360C46.6773 360 46.5067 359.957 46.336 359.872C46.336 359.872 46.2933 359.872 46.208 359.872C44.0747 359.36 43.008 357.952 43.008 355.648V355.264C43.008 345.28 42.88 337.003 42.624 330.432C42.4533 323.776 42.112 318.485 41.6 314.56C41.1733 310.635 40.576 307.733 39.808 305.856C39.04 303.893 38.016 302.613 36.736 302.016C35.5413 301.419 34.0907 301.12 32.384 301.12C29.2267 301.12 26.8373 302.272 25.216 304.576C23.5947 306.795 22.784 310.421 22.784 315.456V355.648C22.784 356.843 22.3573 357.867 21.504 358.72C20.6507 359.573 19.6267 360 18.432 360H10.752C9.55733 360 8.53333 359.573 7.68 358.72C6.82667 357.867 6.4 356.843 6.4 355.648V297.792C6.4 296.597 6.82667 295.573 7.68 294.72C8.53333 293.867 9.55733 293.44 10.752 293.44H18.432C19.7973 293.44 20.9067 293.952 21.76 294.976C25.0027 293.952 28.544 293.44 32.384 293.44C36.9067 293.44 40.6613 293.824 43.648 294.592C46.6347 295.36 49.0667 296.768 50.944 298.816C55.6373 295.232 61.6533 293.44 68.992 293.44C74.112 293.44 78.2507 293.995 81.408 295.104C84.6507 296.128 87.168 297.963 88.96 300.608C90.8373 303.168 92.16 306.795 92.928 311.488C93.696 316.181 94.1653 322.112 94.336 329.28C94.592 336.448 94.72 345.152 94.72 355.392ZM156.85 361.28C151.389 361.28 146.738 359.872 142.898 357.056C139.143 354.155 136.242 350.187 134.194 345.152C132.231 340.117 131.25 334.357 131.25 327.872C131.25 321.472 132.402 315.669 134.706 310.464C137.095 305.259 140.381 301.12 144.562 298.048C148.743 294.976 153.65 293.44 159.282 293.44C166.621 293.44 172.722 295.019 177.586 298.176C182.45 301.248 186.077 305.259 188.466 310.208C190.855 315.157 192.05 320.405 192.05 325.952C192.05 326.293 192.05 326.635 192.05 326.976C192.647 332.693 193.33 337.899 194.098 342.592C194.866 347.2 195.634 351.04 196.402 354.112C196.487 354.368 196.53 354.709 196.53 355.136C196.53 357.696 195.207 359.189 192.562 359.616L185.266 360.512C182.877 360.768 181.383 359.787 180.786 357.568C180.445 356.203 180.146 354.795 179.89 353.344C176.989 355.819 173.618 357.781 169.778 359.232C165.938 360.597 161.629 361.28 156.85 361.28ZM156.85 353.6C161.031 353.6 164.487 352.235 167.218 349.504C169.949 346.688 171.997 343.147 173.362 338.88C174.813 334.613 175.538 330.219 175.538 325.696C175.538 325.611 175.538 325.44 175.538 325.184C175.453 324.757 175.41 324.288 175.41 323.776C175.41 323.349 175.41 322.965 175.41 322.624C175.154 318.869 174.386 315.371 173.106 312.128C171.826 308.8 170.034 306.155 167.73 304.192C165.426 302.144 162.61 301.12 159.282 301.12C157.49 301.12 155.698 302.443 153.906 305.088C152.114 307.648 150.621 310.976 149.426 315.072C148.231 319.168 147.634 323.435 147.634 327.872C147.634 332.309 148.103 336.491 149.042 340.416C149.981 344.341 151.175 347.541 152.626 350.016C154.077 352.405 155.485 353.6 156.85 353.6ZM293.77 355.392C293.77 356.757 293.343 357.867 292.49 358.72C291.637 359.573 290.613 360 289.418 360H282.25C281.055 360 280.031 359.573 279.178 358.72C278.325 357.781 277.898 356.629 277.898 355.264C277.898 348.949 277.898 344.085 277.898 340.672C277.898 337.173 277.855 334.528 277.77 332.736C277.77 330.859 277.77 329.28 277.77 328C277.77 319.467 276.831 312.853 274.954 308.16C273.162 303.467 270.175 301.12 265.994 301.12C260.703 301.12 256.821 302.272 254.346 304.576C251.871 306.795 250.634 310.421 250.634 315.456V355.648C250.634 356.843 250.207 357.867 249.354 358.72C248.501 359.573 247.477 360 246.282 360H238.602C237.407 360 236.383 359.573 235.53 358.72C234.677 357.867 234.25 356.843 234.25 355.648V297.792C234.25 296.597 234.677 295.573 235.53 294.72C236.383 293.867 237.407 293.44 238.602 293.44H246.282C248.159 293.44 249.482 294.251 250.25 295.872C254.943 294.251 260.191 293.44 265.994 293.44C272.053 293.44 276.874 294.379 280.458 296.256C284.042 298.133 286.773 300.736 288.65 304.064C290.527 307.307 291.807 311.019 292.49 315.2C293.173 319.381 293.557 323.776 293.642 328.384C293.727 329.664 293.77 331.243 293.77 333.12C293.77 334.912 293.77 337.515 293.77 340.928C293.77 344.341 293.77 349.163 293.77 355.392ZM355.95 361.28C350.489 361.28 345.838 359.872 341.998 357.056C338.243 354.155 335.342 350.187 333.294 345.152C331.331 340.117 330.35 334.357 330.35 327.872C330.35 321.472 331.502 315.669 333.806 310.464C336.195 305.259 339.481 301.12 343.662 298.048C347.843 294.976 352.75 293.44 358.382 293.44C365.721 293.44 371.822 295.019 376.686 298.176C381.55 301.248 385.177 305.259 387.566 310.208C389.955 315.157 391.15 320.405 391.15 325.952C391.15 326.293 391.15 326.635 391.15 326.976C391.747 332.693 392.43 337.899 393.198 342.592C393.966 347.2 394.734 351.04 395.502 354.112C395.587 354.368 395.63 354.709 395.63 355.136C395.63 357.696 394.307 359.189 391.662 359.616L384.366 360.512C381.977 360.768 380.483 359.787 379.886 357.568C379.545 356.203 379.246 354.795 378.99 353.344C376.089 355.819 372.718 357.781 368.878 359.232C365.038 360.597 360.729 361.28 355.95 361.28ZM355.95 353.6C360.131 353.6 363.587 352.235 366.318 349.504C369.049 346.688 371.097 343.147 372.462 338.88C373.913 334.613 374.638 330.219 374.638 325.696C374.638 325.611 374.638 325.44 374.638 325.184C374.553 324.757 374.51 324.288 374.51 323.776C374.51 323.349 374.51 322.965 374.51 322.624C374.254 318.869 373.486 315.371 372.206 312.128C370.926 308.8 369.134 306.155 366.83 304.192C364.526 302.144 361.71 301.12 358.382 301.12C356.59 301.12 354.798 302.443 353.006 305.088C351.214 307.648 349.721 310.976 348.526 315.072C347.331 319.168 346.734 323.435 346.734 327.872C346.734 332.309 347.203 336.491 348.142 340.416C349.081 344.341 350.275 347.541 351.726 350.016C353.177 352.405 354.585 353.6 355.95 353.6ZM431.174 346.688C430.918 346.176 430.79 345.707 430.79 345.28C430.79 344.256 431.259 343.403 432.198 342.72C433.137 341.952 434.203 341.568 435.398 341.568H442.822C444.87 341.568 446.193 342.763 446.79 345.152C447.473 347.627 449.051 349.632 451.526 351.168C454.001 352.704 457.713 353.472 462.662 353.472C468.123 353.472 471.878 352.491 473.926 350.528C476.059 348.565 477.126 345.749 477.126 342.08C477.126 338.325 475.718 335.381 472.902 333.248C470.086 331.029 466.118 330.005 460.998 330.176C453.83 330.347 448.113 329.707 443.846 328.256C439.665 326.72 436.635 324.629 434.758 321.984C432.966 319.339 432.07 316.395 432.07 313.152C432.07 307.093 434.758 302.315 440.134 298.816C445.595 295.232 453.275 293.44 463.174 293.44C474.182 293.44 482.545 295.787 488.262 300.48C490.566 302.357 491.718 304.021 491.718 305.472C491.718 306.325 491.377 306.965 490.694 307.392L488.518 309.056C487.665 309.653 486.854 309.952 486.086 309.952C485.233 309.952 484.55 309.739 484.038 309.312C480.369 306.581 476.827 304.533 473.414 303.168C470.086 301.803 466.673 301.12 463.174 301.12C458.395 301.12 454.726 302.272 452.166 304.576C449.691 306.795 448.454 309.653 448.454 313.152C448.454 316.48 449.393 318.869 451.27 320.32C453.233 321.771 456.475 322.496 460.998 322.496C466.801 322.496 472.177 323.264 477.126 324.8C482.075 326.336 486.043 328.597 489.03 331.584C492.017 334.485 493.51 337.984 493.51 342.08C493.51 345.749 492.187 349.035 489.542 351.936C486.897 354.837 483.227 357.099 478.534 358.72C473.926 360.341 468.635 361.152 462.662 361.152C454.897 361.152 448.155 359.744 442.438 356.928C436.806 354.112 433.051 350.699 431.174 346.688ZM554.925 361.28C549.464 361.28 544.813 359.872 540.973 357.056C537.218 354.155 534.317 350.187 532.269 345.152C530.306 340.117 529.325 334.357 529.325 327.872C529.325 321.472 530.477 315.669 532.781 310.464C535.17 305.259 538.456 301.12 542.637 298.048C546.818 294.976 551.725 293.44 557.357 293.44C564.696 293.44 570.797 295.019 575.661 298.176C580.525 301.248 584.152 305.259 586.541 310.208C588.93 315.157 590.125 320.405 590.125 325.952C590.125 326.293 590.125 326.635 590.125 326.976C590.722 332.693 591.405 337.899 592.173 342.592C592.941 347.2 593.709 351.04 594.477 354.112C594.562 354.368 594.605 354.709 594.605 355.136C594.605 357.696 593.282 359.189 590.637 359.616L583.341 360.512C580.952 360.768 579.458 359.787 578.861 357.568C578.52 356.203 578.221 354.795 577.965 353.344C575.064 355.819 571.693 357.781 567.853 359.232C564.013 360.597 559.704 361.28 554.925 361.28ZM554.925 353.6C559.106 353.6 562.562 352.235 565.293 349.504C568.024 346.688 570.072 343.147 571.437 338.88C572.888 334.613 573.613 330.219 573.613 325.696C573.613 325.611 573.613 325.44 573.613 325.184C573.528 324.757 573.485 324.288 573.485 323.776C573.485 323.349 573.485 322.965 573.485 322.624C573.229 318.869 572.461 315.371 571.181 312.128C569.901 308.8 568.109 306.155 565.805 304.192C563.501 302.144 560.685 301.12 557.357 301.12C555.565 301.12 553.773 302.443 551.981 305.088C550.189 307.648 548.696 310.976 547.501 315.072C546.306 319.168 545.709 323.435 545.709 327.872C545.709 332.309 546.178 336.491 547.117 340.416C548.056 344.341 549.25 347.541 550.701 350.016C552.152 352.405 553.56 353.6 554.925 353.6ZM630.149 346.688C629.893 346.176 629.765 345.707 629.765 345.28C629.765 344.256 630.234 343.403 631.173 342.72C632.112 341.952 633.178 341.568 634.373 341.568H641.797C643.845 341.568 645.168 342.763 645.765 345.152C646.448 347.627 648.026 349.632 650.501 351.168C652.976 352.704 656.688 353.472 661.637 353.472C667.098 353.472 670.853 352.491 672.901 350.528C675.034 348.565 676.101 345.749 676.101 342.08C676.101 338.325 674.693 335.381 671.877 333.248C669.061 331.029 665.093 330.005 659.973 330.176C652.805 330.347 647.088 329.707 642.821 328.256C638.64 326.72 635.61 324.629 633.733 321.984C631.941 319.339 631.045 316.395 631.045 313.152C631.045 307.093 633.733 302.315 639.109 298.816C644.57 295.232 652.25 293.44 662.149 293.44C673.157 293.44 681.52 295.787 687.237 300.48C689.541 302.357 690.693 304.021 690.693 305.472C690.693 306.325 690.352 306.965 689.669 307.392L687.493 309.056C686.64 309.653 685.829 309.952 685.061 309.952C684.208 309.952 683.525 309.739 683.013 309.312C679.344 306.581 675.802 304.533 672.389 303.168C669.061 301.803 665.648 301.12 662.149 301.12C657.37 301.12 653.701 302.272 651.141 304.576C648.666 306.795 647.429 309.653 647.429 313.152C647.429 316.48 648.368 318.869 650.245 320.32C652.208 321.771 655.45 322.496 659.973 322.496C665.776 322.496 671.152 323.264 676.101 324.8C681.05 326.336 685.018 328.597 688.005 331.584C690.992 334.485 692.485 337.984 692.485 342.08C692.485 345.749 691.162 349.035 688.517 351.936C685.872 354.837 682.202 357.099 677.509 358.72C672.901 360.341 667.61 361.152 661.637 361.152C653.872 361.152 647.13 359.744 641.413 356.928C635.781 354.112 632.026 350.699 630.149 346.688Z" fill="white"/>
<path fill-rule="evenodd" clip-rule="evenodd" d="M744.118 159.522C744.118 159.522 724.934 118.142 738.129 108.693C745.13 103.681 753.075 127.864 753.075 127.864" fill="white"/>
<path fill-rule="evenodd" clip-rule="evenodd" d="M745.48 158.891C745.829 159.642 745.501 160.536 744.749 160.885C743.998 161.233 743.104 160.906 742.756 160.154C742.756 160.154 733.236 139.578 732.106 123.947C731.585 116.737 732.933 110.567 737.256 107.472C739.988 105.516 742.931 106.626 745.573 109.633C750.458 115.191 754.502 127.395 754.502 127.395C754.761 128.182 754.331 129.032 753.544 129.29C752.757 129.549 751.908 129.12 751.649 128.332C751.649 128.332 747.907 116.838 743.317 111.615C742.638 110.842 741.95 110.216 741.242 109.837C740.499 109.44 739.742 109.386 739.004 109.914C735.408 112.488 734.668 117.734 735.101 123.731C736.199 138.914 745.48 158.891 745.48 158.891Z" fill="#895B8A"/>
<path fill-rule="evenodd" clip-rule="evenodd" d="M869.297 381.406C869.297 381.406 738.703 370.175 739.091 211.453C739.352 104.257 811.561 -16.1384 930.973 3.65514C1073.98 27.3587 1072.18 259.369 1048.3 318.907C1015.99 399.423 952.629 392.645 952.629 392.645C952.629 392.645 990.357 399.316 984.426 428.006C976.175 467.923 922.101 488.749 899.239 473.365C855.053 443.627 909.866 401.417 909.866 401.417C909.866 401.417 868.261 460.594 799.122 424.443C770.63 409.545 803.453 390.735 820.136 386.455C837.785 381.926 869.297 381.406 869.297 381.406Z" fill="white"/>
<path fill-rule="evenodd" clip-rule="evenodd" d="M887.566 423.996C868.251 436.589 837.709 446.313 798.427 425.773C790.717 421.742 787.284 417.325 786.56 413.076C785.818 408.723 787.867 404.371 791.599 400.434C798.507 393.146 811.201 387.197 819.763 385C829.968 382.382 844.773 381.091 855.534 380.465C838.654 376.466 809.033 366.239 783.695 340.906C758.465 315.682 737.433 275.475 737.59 211.449C737.854 103.393 810.848 -17.779 931.219 2.17365C988.992 11.7501 1023.43 54.9188 1042.34 107.207C1070.56 185.253 1064.09 283.563 1049.69 319.466C1024.93 381.192 982.102 392.273 962.632 394C965.417 395.059 968.516 396.46 971.529 398.282C980.696 403.824 989.025 413.177 985.897 428.31C980.834 452.804 958.952 470.323 937.164 476.977C922.475 481.467 907.859 480.976 898.401 474.61C889.216 468.429 884.184 461.698 881.951 454.934C878.592 444.755 881.563 434.42 886.68 425.492C886.969 424.989 887.264 424.49 887.566 423.996ZM892.769 416.548C900.456 406.77 908.95 400.227 908.95 400.227C909.539 399.774 910.369 399.819 910.905 400.332C911.441 400.845 911.522 401.673 911.095 402.28C911.095 402.28 905.457 410.311 894.876 418.721C892.89 421.274 890.969 424.05 889.286 426.986C884.588 435.182 881.719 444.647 884.803 453.992C886.867 460.244 891.588 466.406 900.078 472.119C908.909 478.063 922.571 478.293 936.287 474.106C957.106 467.746 978.118 451.108 982.956 427.702C985.759 414.145 978.189 405.817 969.975 400.852C961.531 395.747 952.367 394.124 952.367 394.124C951.571 393.982 951.029 393.235 951.142 392.434C951.256 391.633 951.984 391.066 952.789 391.151C952.789 391.151 1015.08 397.664 1046.9 318.348C1061.16 282.806 1067.45 185.49 1039.52 108.228C1020.98 56.9755 987.357 14.523 930.728 5.13623C812.275 -14.4981 740.852 105.121 740.593 211.457C740.439 274.409 761.011 313.981 785.818 338.782C822.935 375.891 869.426 379.91 869.426 379.91C870.222 379.978 870.825 380.659 870.798 381.458C870.77 382.257 870.121 382.894 869.322 382.907C869.322 382.907 838.033 383.413 820.51 387.909C812.39 389.992 800.33 395.589 793.779 402.5C790.78 405.663 788.924 409.074 789.52 412.571C790.134 416.174 793.281 419.694 799.819 423.112C842.792 445.582 874.945 430.593 892.769 416.548Z" fill="#895B8A"/>
<path fill-rule="evenodd" clip-rule="evenodd" d="M947.619 160.016C946.985 160.55 946.037 160.468 945.504 159.833C944.97 159.199 945.052 158.251 945.686 157.718C945.686 157.718 956.473 148.675 963.794 145.864C965.593 145.173 967.218 144.855 968.493 144.996C970.195 145.183 971.429 146.054 972.003 147.812C977.979 166.136 961.693 182.613 961.693 182.613C961.108 183.2 960.157 183.202 959.57 182.618C958.982 182.033 958.98 181.082 959.564 180.494C959.564 180.494 964.991 175.031 968.147 167.015C970.216 161.76 971.315 155.388 969.148 148.743C968.938 148.101 968.384 147.941 967.7 147.967C966.88 147.999 965.919 148.264 964.87 148.667C957.885 151.35 947.619 160.016 947.619 160.016Z" fill="#895B8A"/>
<path fill-rule="evenodd" clip-rule="evenodd" d="M819.97 74.2665C820.656 73.8015 821.59 73.9812 822.055 74.6674C822.52 75.3531 822.34 76.2876 821.654 76.7526C821.654 76.7526 819.396 78.2831 817.827 80.5815C816.438 82.6136 815.603 85.3274 818.037 88.0453C821.028 91.3842 827.157 93.539 833.243 94.6196C839.339 95.7017 845.43 95.7082 848.401 94.4084C850.293 93.58 850.873 91.8057 850.981 90.0313C851.174 86.8625 849.887 83.5686 849.887 83.5686C849.587 82.7963 849.971 81.9254 850.743 81.6256C851.515 81.3253 852.386 81.7092 852.686 82.4815C852.686 82.4815 854.21 86.4241 853.978 90.2145C853.803 93.08 852.662 95.8213 849.605 97.1597C846.295 98.6082 839.511 98.7819 832.719 97.5761C825.916 96.3689 819.143 93.7812 815.8 90.0488C812.158 85.9831 813.27 81.9279 815.347 78.8873C817.242 76.1129 819.97 74.2665 819.97 74.2665Z" fill="#895B8A"/>
<path fill-rule="evenodd" clip-rule="evenodd" d="M884.591 85.3175C885.395 85.1178 886.211 85.6088 886.41 86.4126C886.61 87.2169 886.12 88.0323 885.315 88.232C885.315 88.232 881.232 89.1895 880.204 92.6356C879.747 94.1671 879.936 96.1527 881.204 98.7319C881.449 99.2319 881.947 99.7124 882.595 100.21C883.812 101.146 885.531 102.054 887.531 102.908C892.404 104.99 898.91 106.713 904.275 107.493C907.665 107.987 910.573 108.133 912.223 107.664C915.802 106.647 916.983 104.053 917.274 101.718C917.588 99.2074 916.945 96.9691 916.945 96.9691C916.714 96.1727 917.173 95.3394 917.969 95.1086C918.765 94.8779 919.598 95.3369 919.829 96.1327C919.829 96.1327 920.648 98.9401 920.255 102.091C919.839 105.418 918.144 109.103 913.044 110.553C911.587 110.967 909.295 111.041 906.555 110.79C900.567 110.243 892.297 108.209 886.352 105.67C882.366 103.968 879.428 101.927 878.508 100.056C876.793 96.5641 876.707 93.8503 877.326 91.7772C878.808 86.8115 884.591 85.3175 884.591 85.3175Z" fill="#895B8A"/>
<path fill-rule="evenodd" clip-rule="evenodd" d="M853.347 91.8609C852.519 91.8923 851.822 91.2452 851.791 90.4169C851.759 89.5891 852.406 88.8913 853.234 88.8599C858.358 88.6661 863.653 89.3263 867.274 89.933C870.549 90.4817 874.26 91.4615 878.893 93.0715C879.677 93.3439 880.091 94.2004 879.819 94.9829C879.547 95.7658 878.691 96.1806 877.908 95.9083C873.469 94.3658 869.915 93.4204 866.778 92.8949C863.314 92.3146 858.249 91.6754 853.347 91.8609Z" fill="#895B8A"/>
<path fill-rule="evenodd" clip-rule="evenodd" d="M868.075 99.9833C876.848 96.1569 885.567 100.885 890.476 108.249C895.389 115.62 896.361 125.493 890.089 131.687C886.278 135.45 882.241 136.714 878.417 136.338C872.84 135.789 867.631 131.62 864.212 126.156C858.458 116.958 857.949 104.4 868.075 99.9833ZM869.275 102.736C865.219 104.506 863.389 107.93 863.128 111.819C862.851 115.972 864.297 120.629 866.758 124.563C869.66 129.201 873.978 132.883 878.711 133.349C881.759 133.649 884.941 132.55 887.979 129.55C893.233 124.362 892.092 116.089 887.977 109.915C883.859 103.736 876.636 99.5259 869.275 102.736Z" fill="#895B8A"/>
<path fill-rule="evenodd" clip-rule="evenodd" d="M860.337 98.5148C862.477 100.082 863.539 102.447 863.67 105.265C863.844 109.013 862.304 113.631 859.679 117.91C857.104 122.106 853.503 125.974 849.606 128.379C845.871 130.684 841.858 131.643 838.148 130.509C835.66 129.749 833.278 128.049 831.213 125.082C827.653 119.968 828.427 112.404 832.052 106.079C837.445 96.6714 848.891 90.1336 860.337 98.5148ZM858.562 100.938C848.864 93.8365 839.227 99.6015 834.658 107.573C831.642 112.834 830.716 119.112 833.678 123.367C835.283 125.672 837.093 127.046 839.026 127.637C841.949 128.53 845.085 127.64 848.029 125.823C851.553 123.649 854.791 120.133 857.119 116.339C859.032 113.221 860.337 109.914 860.623 106.999C860.871 104.472 860.361 102.255 858.562 100.938Z" fill="#895B8A"/>
<path fill-rule="evenodd" clip-rule="evenodd" d="M895.106 59.3322C893.445 53.8507 897.929 49.6849 903.453 48.3464C906.604 47.583 910.017 47.761 912.541 49.0168C914.412 49.9474 915.826 51.4463 916.434 53.5607C917.923 58.737 913.594 63.1771 908.209 64.731C902.849 66.2774 896.793 64.8989 895.106 59.3322ZM897.98 58.4614C899.169 62.384 903.599 62.9355 907.377 61.8452C909.371 61.2699 911.23 60.2159 912.44 58.8064C913.496 57.5771 914.029 56.0633 913.548 54.3911C913.086 52.7853 911.806 51.8169 910.236 51.3168C908.416 50.7375 906.216 50.7675 904.16 51.2652C900.363 52.1855 896.838 54.6927 897.98 58.4614Z" fill="#895B8A"/>
<path fill-rule="evenodd" clip-rule="evenodd" d="M848.077 52.0109C843.035 55.931 836.968 54.2988 833.495 50.6688C831.349 48.4263 830.223 45.4391 830.801 42.557C831.187 40.6303 832.326 38.7185 834.523 37.1086C838.398 34.269 843.981 36.0609 847.5 39.6259C851.158 43.3315 852.417 48.6367 848.077 52.0109ZM846.234 49.64C849.018 47.4755 847.709 44.1122 845.363 41.7353C844.053 40.4078 842.374 39.3535 840.656 38.9051C839.134 38.5085 837.576 38.5946 836.298 39.5308C834.825 40.6109 834.005 41.8549 833.745 43.1472C833.355 45.094 834.215 47.078 835.665 48.5927C838.184 51.2256 842.577 52.4833 846.234 49.64Z" fill="#895B8A"/>
<path fill-rule="evenodd" clip-rule="evenodd" d="M901.899 67.6977C902.947 68.1634 903.782 69.313 904.269 71.0311C905.202 74.3184 904.992 79.8817 903.945 85.2913C903.05 89.9146 901.549 94.4205 899.703 97.2949C898.282 99.5057 896.595 100.766 894.884 100.777C892.718 100.791 891.244 99.2059 890.563 96.4836C889.719 93.1086 890.067 87.8619 891.191 82.767C892.51 76.7852 894.914 71.0367 897.521 68.696C898.937 67.4255 900.436 67.0481 901.899 67.6977ZM901.086 69.5274C900.516 69.274 899.946 69.41 899.386 69.7757C898.887 70.1018 898.402 70.5945 897.927 71.2095C895.923 73.8027 894.197 78.4348 893.146 83.1983C892.097 87.9536 891.717 92.8477 892.505 95.9974C892.913 97.628 893.574 98.7831 894.871 98.7747C896.039 98.7671 897.049 97.7221 898.018 96.2128C899.755 93.5089 901.138 89.2599 901.979 84.911C902.824 80.5498 903.123 76.0835 902.636 72.9492C902.486 71.9895 902.266 71.1639 901.951 70.5252C901.718 70.0528 901.452 69.6901 901.086 69.5274Z" fill="#895B8A"/>
<path fill-rule="evenodd" clip-rule="evenodd" d="M901.492 68.6136C894.098 65.328 886.228 99.8316 894.877 99.7767C902.072 99.7309 907.037 71.0772 901.492 68.6136Z" fill="#895B8A"/>
<path fill-rule="evenodd" clip-rule="evenodd" d="M838.444 55.5781C839.92 56.1623 840.837 57.7633 841.094 60.1157C841.587 64.6498 839.761 72.222 837.361 78.4133C835.741 82.5909 833.852 86.1361 832.291 87.7555C831.321 88.7616 830.354 89.0875 829.607 88.91C827.815 88.4836 826.669 86.9379 826.21 84.5714C825.323 79.9961 827.005 72.0786 829.534 65.7011C831.252 61.3682 833.379 57.7569 835.276 56.2809C836.39 55.4142 837.482 55.1976 838.444 55.5781ZM830.05 86.957C830.068 86.9515 830.127 86.9342 830.161 86.9178C830.228 86.8862 830.296 86.844 830.366 86.7941C830.703 86.5552 831.058 86.1692 831.435 85.675C832.744 83.9572 834.198 81.033 835.494 77.6897C837.457 72.6263 839.053 66.6025 839.169 62.2598C839.204 60.9175 839.102 59.7473 838.798 58.8426C838.57 58.1666 838.245 57.6523 837.707 57.4395C837.505 57.3596 837.291 57.4087 837.065 57.5105C836.665 57.6912 836.259 58.0312 835.837 58.4804C834.317 60.0994 832.743 63.041 831.395 66.4392C829.342 71.6154 827.831 77.8541 827.975 82.2601C828.019 83.6064 828.212 84.7692 828.627 85.6433C828.946 86.3139 829.395 86.7935 830.05 86.957Z" fill="#895B8A"/>
<path fill-rule="evenodd" clip-rule="evenodd" d="M838.075 56.51C832.504 54.3053 821.836 86.0334 829.838 87.9373C833.976 88.9221 844.678 59.1227 838.075 56.51Z" fill="#895B8A"/>
</svg>
