<!--?xml version="1.0" encoding="utf-8"?-->
<!-- Generator: Adobe Illustrator 18.1.1, SVG Export Plug-In . SVG Version: 6.00 Build 0)  -->

<svg version="1.1" id="_x32_" xmlns="http://www.w3.org/2000/svg" xmlns:xlink="http://www.w3.org/1999/xlink" x="0px" y="0px" viewBox="0 0 512 512" style="width: 256px; height: 256px; opacity: 1;" xml:space="preserve">
<style type="text/css">
	.st0{fill:#4B4B4B;}
</style>
<g>
	<path class="st0" d="M508.247,70.39c-4.907-9.166-13.991-15.347-24.323-16.54L228.782,24.411
		c-32.842-3.786-64.584,13.208-79.649,42.638L13.165,332.741c-6.709,13.108-6.572,28.673,0.382,41.654
		c6.945,12.99,19.826,21.737,34.454,23.431l232.767,28.2c6.617,0.819,11.596,6.445,11.596,13.117v2.267
		c0,3.786-1.62,7.391-4.46,9.904c-2.831,2.503-6.609,3.677-10.359,3.213L48.001,426.718c-19.052-2.103-35.828-12.981-44.876-29.12
		c-9.321,16.312,1.848,59.414,38.349,63.291l232.594,26.835c24.177,2.804,47.544-9.767,58.55-31.486L508.52,99.792
		C513.253,90.544,513.154,79.556,508.247,70.39z" style="fill: rgb(33, 33, 33);"></path>
</g>
</svg>
