<?xml version="1.0" encoding="UTF-8" standalone="no"?>
<!DOCTYPE svg PUBLIC "-//W3C//DTD SVG 1.1//EN" "http://www.w3.org/Graphics/SVG/1.1/DTD/svg11.dtd">
<svg width="100%" height="100%" viewBox="0 0 800 800" version="1.1" xmlns="http://www.w3.org/2000/svg" xmlns:xlink="http://www.w3.org/1999/xlink" xml:space="preserve" xmlns:serif="http://www.serif.com/" style="fill-rule:evenodd;clip-rule:evenodd;stroke-linejoin:round;stroke-miterlimit:2;">
    <g transform="matrix(1,0,0,1,-2593.25,-15.839)">
        <g id="アウトライン化済" transform="matrix(0.631837,0,0,0.903942,3446.83,887.64)">
            <rect x="-1350.96" y="-964.444" width="1266.15" height="885.013" style="fill:rgb(255,147,193);"/>
            <g transform="matrix(1,0,0,1.03044,0,-7.02274)">
                <g transform="matrix(1.77446,0,0,1.24031,-1779.11,-1096)">
                    <path d="M337.808,379.295C334.873,370.752 315.861,340.874 310.277,359.372C303.086,383.194 326.984,434.6 326.984,434.6" style="fill:white;"/>
                </g>
                <g transform="matrix(1.77446,0,0,1.24031,-1779.11,-1096)">
                    <path d="M339.712,378.679C340.062,379.699 339.493,380.803 338.442,381.143C337.392,381.482 336.254,380.93 335.904,379.911C334.212,374.985 326.97,362.669 320.278,357.452C318.518,356.079 316.887,355.135 315.404,355.429C313.968,355.713 313.023,357.202 312.203,359.92C309.407,369.182 311.54,382.727 314.994,395.655C320.28,415.443 328.814,433.799 328.814,433.799C329.269,434.779 328.819,435.933 327.81,436.375C326.8,436.817 325.61,436.381 325.155,435.401C325.155,435.401 316.481,416.745 311.109,396.632C307.456,382.959 305.394,368.62 308.351,358.825C309.767,354.135 312.123,352.103 314.601,351.613C317.031,351.131 319.908,352.166 322.792,354.415C330.027,360.056 337.882,373.354 339.712,378.679Z" style="fill:rgb(219,144,176);"/>
                </g>
                <g transform="matrix(1.85237,0,0,1.56672,-1844.09,-1231.46)">
                    <path d="M561.576,652.372C561.576,652.372 479.331,652.671 429.203,616.992C287.366,516.037 354.68,337.368 438.279,282.992C508.09,237.583 742.37,246.064 740.447,460.273C739.05,615.859 631.106,628.416 631.106,628.416C631.106,628.416 666.855,630.491 689.592,654.175C717.31,683.048 696.88,712.913 661.011,708.822C628.047,705.063 601.602,648.512 601.602,648.512C601.602,648.512 631.844,696.277 608.748,719.482C590.534,737.782 554.595,730.638 546.208,702.157C537.459,672.448 561.576,652.372 561.576,652.372Z" style="fill:white;"/>
                </g>
                <g transform="matrix(1.85237,0,0,1.56672,-1844.09,-1231.46)">
                    <path d="M616.19,676.525C616.935,679.037 617.591,681.621 618.109,684.234C620.676,697.184 619.812,710.838 610.25,720.444C598.683,732.066 580.361,733.994 565.637,727.164C555.97,722.68 547.834,714.387 544.337,702.511C537.193,678.253 551.377,660.242 557.533,653.844C540.29,653.354 471.886,649.434 427.927,618.145C342.226,557.146 332.266,467.991 356.261,394.584C372.264,345.628 403.38,303.706 437.068,281.794C456.873,268.912 489.724,260.259 526.747,259.316C582.088,257.905 646.732,273.682 690.725,317.971C722.063,349.521 742.95,395.573 742.369,460.285C741.666,538.672 714.005,581 686.636,603.76C668.606,618.754 650.634,625.322 640.286,628.08C652.628,630.308 675.047,636.497 691.115,653.234C705.521,668.241 707.258,683.529 700.89,694.51C694.433,705.644 679.641,712.504 660.74,710.349C647.109,708.794 634.433,698.63 624.277,686.846C621.37,683.472 618.663,679.972 616.19,676.525ZM606.211,661.047C602.109,653.986 599.802,649.054 599.802,649.054C599.444,648.288 599.894,647.431 600.828,647.101C601.762,646.772 602.854,647.085 603.316,647.814C603.316,647.814 606.33,652.575 609.745,659.834C613.936,667.042 620.021,676.484 627.44,685.092C636.933,696.107 648.541,705.843 661.281,707.296C678.249,709.231 691.607,703.204 697.403,693.21C703.288,683.063 701.381,668.982 688.069,655.116C665.867,631.99 630.967,629.954 630.967,629.954C629.988,629.897 629.22,629.258 629.185,628.471C629.149,627.685 629.859,627.003 630.83,626.89C630.83,626.89 657.244,623.761 683.869,601.619C710.822,579.204 737.832,537.461 738.525,460.262C739.098,396.448 718.622,351.006 687.718,319.893C644.57,276.454 581.148,261.014 526.869,262.398C490.811,263.317 458.779,271.643 439.49,284.189C406.298,305.778 375.747,347.131 359.98,395.366C336.32,467.747 345.975,555.692 430.479,615.839C480.114,651.167 561.567,650.83 561.567,650.83C562.339,650.827 563.039,651.196 563.343,651.765C563.647,652.335 563.496,652.995 562.96,653.441C562.96,653.441 539.582,672.948 548.079,701.803C551.292,712.711 558.682,720.375 567.562,724.495C580.659,730.57 596.956,728.858 607.246,718.52C616.161,709.562 616.706,696.794 614.312,684.718C612.569,675.93 609.235,667.491 606.211,661.047Z" style="fill:rgb(219,144,176);"/>
                </g>
                <g transform="matrix(1.77446,0,0,1.24031,-1906.37,-1094.38)">
                    <path d="M637.958,397.871C637.637,398.9 636.516,399.483 635.456,399.171C634.396,398.86 633.796,397.772 634.116,396.743C634.116,396.743 640.336,376.952 649.171,367.664C653.555,363.055 658.593,360.972 663.789,363.604C671.029,367.272 673.922,375.097 674.126,384.392C674.57,404.573 662.506,431.712 662.506,431.712C662.066,432.698 660.884,433.153 659.867,432.726C658.851,432.299 658.383,431.151 658.823,430.165C658.823,430.165 667.44,410.855 669.63,393.025C670.34,387.249 670.38,381.631 669.161,376.923C668.037,372.58 665.833,369.034 661.931,367.057C658.389,365.262 655.109,367.164 652.12,370.306C643.758,379.097 637.958,397.871 637.958,397.871Z" style="fill:rgb(219,144,176);"/>
                </g>
                <g id="顔" transform="matrix(0.999934,-0.0135827,0.0353254,0.999586,8.34261,-166.831)">
                    <g transform="matrix(1.77446,3.46945e-18,0,1.24031,-1789.85,-1027.71)">
                        <path d="M456.972,344.179C455.691,345.415 453.789,346.252 451.499,346.612C448.503,347.082 444.795,346.752 441.229,345.684C434.788,343.757 428.954,339.396 428.072,333.559C427.682,330.971 428.214,328.057 430.151,324.891C431.429,322.801 434.006,321.622 437.323,321.497C441.413,321.343 446.717,322.758 451.172,325.177C456.724,328.191 460.789,332.807 460.431,337.561C460.268,339.723 459.252,341.978 456.972,344.179ZM454.148,341.422C455.587,340.033 456.326,338.658 456.428,337.293C456.548,335.708 455.82,334.202 454.665,332.817C453.312,331.195 451.371,329.756 449.202,328.578C445.42,326.525 440.936,325.259 437.463,325.39C435.736,325.455 434.265,325.782 433.599,326.87C432.229,329.109 431.767,331.149 432.043,332.979C432.719,337.453 437.488,340.484 442.425,341.961C445.36,342.84 448.407,343.153 450.874,342.766C452.226,342.554 453.391,342.152 454.148,341.422Z" style="fill:rgb(219,144,176);"/>
                    </g>
                    <g transform="matrix(1.77446,-3.46945e-18,0,1.24031,-1756.19,-1013.97)">
                        <path d="M484.218,338.159C478.902,328.847 486.753,321.808 497.03,318.616C503.731,316.535 511.289,316.116 515.911,317.5C518.417,318.251 520.148,319.559 520.913,321.207C525.641,331.386 517.855,338.177 507.858,341.069C501.307,342.965 493.922,343.132 489.274,341.678C486.835,340.916 485.084,339.676 484.218,338.159ZM487.73,336.261C488.393,337.421 490.134,338.005 492.285,338.397C496.321,339.131 501.791,338.764 506.726,337.336C514.258,335.157 520.816,330.489 517.254,322.82C517.041,322.363 516.594,322.033 516.036,321.743C515.213,321.316 514.164,321.025 512.968,320.835C508.905,320.19 503.298,320.755 498.24,322.326C494.933,323.353 491.855,324.808 489.64,326.69C488.178,327.932 487.1,329.35 486.707,330.976C486.323,332.566 486.626,334.327 487.73,336.261Z" style="fill:rgb(219,144,176);"/>
                    </g>
                    <g transform="matrix(1.77446,0,0,1.24031,-1786.93,-1025.63)">
                        <path d="M408.085,379.258C408.777,378.416 410.041,378.274 410.906,378.942C411.771,379.61 411.911,380.837 411.22,381.679C411.22,381.679 408.612,384.86 407.199,388.944C406.329,391.458 405.88,394.343 407.037,396.976C408.71,400.784 413.373,403.284 418.749,404.481C427.113,406.345 437.422,405.023 442.312,399.125C444.679,396.269 445.457,393.872 445.455,391.989C445.452,389.566 444.145,388.168 444.145,388.168C443.376,387.398 443.398,386.164 444.194,385.414C444.991,384.664 446.262,384.681 447.032,385.451C447.032,385.451 449.464,387.797 449.468,391.969C449.47,394.483 448.594,397.749 445.434,401.56C439.686,408.494 427.67,410.47 417.836,408.278C411.079,406.773 405.447,403.302 403.345,398.516C401.79,394.976 402.226,391.097 403.395,387.717C405.041,382.96 408.085,379.258 408.085,379.258Z" style="fill:rgb(219,144,176);"/>
                    </g>
                    <g transform="matrix(1.77446,0,2.08167e-17,1.24031,-1803.77,-1027.76)">
                        <path d="M456.26,400.653C455.156,400.57 454.333,399.632 454.423,398.56C454.514,397.488 455.483,396.686 456.587,396.769L496.345,399.775C497.449,399.859 498.272,400.796 498.181,401.868C498.091,402.94 497.122,403.742 496.018,403.659L456.26,400.653Z" style="fill:rgb(219,144,176);"/>
                    </g>
                    <g transform="matrix(1.77446,0,2.08167e-17,1.24031,-1799.35,-1025.06)">
                        <path d="M500.414,388.116C501.264,387.424 502.53,387.529 503.24,388.352C503.95,389.174 503.836,390.404 502.985,391.096C502.985,391.096 498.928,394.387 497.043,398.678C495.936,401.197 495.609,404.113 497.819,406.809C499.314,408.634 502.038,409.99 505.309,411.047C510.674,412.78 517.491,413.597 523.552,413.634C527.541,413.659 531.2,413.348 533.882,412.714C535.309,412.376 536.426,412.01 537.008,411.459C540.246,408.393 540.175,404.772 539.34,401.927C538.447,398.879 536.693,396.649 536.693,396.649C536.02,395.798 536.188,394.574 537.067,393.917C537.947,393.26 539.207,393.418 539.88,394.269C539.88,394.269 542.085,397.044 543.2,400.847C544.375,404.852 544.364,409.926 539.805,414.242C538.858,415.139 537.138,415.949 534.818,416.498C531.882,417.193 527.878,417.557 523.511,417.53C517.037,417.49 509.759,416.595 504.028,414.744C499.902,413.41 496.561,411.544 494.675,409.242C491.387,405.23 491.706,400.91 493.352,397.161C495.598,392.05 500.414,388.116 500.414,388.116Z" style="fill:rgb(219,144,176);"/>
                    </g>
                    <g transform="matrix(1.77446,3.46945e-18,1.38778e-17,1.24031,-1819.1,-1030.39)">
                        <path d="M441.419,416.942C447.269,410.461 458.227,405.759 466.827,405.207C473.311,404.791 478.432,406.81 480.026,411.323C481.033,414.174 480.77,417.77 479.274,421.697C477.224,427.081 472.847,433.174 466.754,438.694C457.073,447.466 446.094,447.14 439.936,442.288C433.692,437.369 431.846,427.547 441.419,416.942ZM444.433,419.503C436.95,427.793 437.592,435.414 442.473,439.26C447.438,443.172 456.215,442.925 464.022,435.851C469.588,430.808 473.637,425.277 475.511,420.359C476.631,417.418 476.984,414.735 476.229,412.6C475.754,411.255 474.696,410.366 473.306,409.814C471.601,409.137 469.445,408.942 467.076,409.094C459.419,409.586 449.642,413.732 444.433,419.503Z" style="fill:rgb(219,144,176);"/>
                    </g>
                    <g transform="matrix(1.77446,3.46945e-18,1.38778e-17,1.24031,-1817.84,-1032.38)">
                        <path d="M515.894,420.168C523.29,426.329 526.191,434.863 525.375,441.821C524.796,446.756 522.363,450.915 518.431,453.151C512.295,456.642 501.894,455.524 488.508,443.457C481.516,437.154 477.269,429.092 476.339,422.612C475.636,417.713 476.847,413.66 479.754,411.44C488.628,404.664 498.638,405.794 515.894,420.168ZM513.274,423.129C498.308,410.663 489.924,408.622 482.227,414.499C480.285,415.982 479.844,418.786 480.314,422.06C481.143,427.836 485.012,434.979 491.245,440.598C497.156,445.927 502.346,448.984 506.759,450.289C510.725,451.462 513.977,451.178 516.413,449.792C519.301,448.149 520.963,445.021 521.388,441.395C522.078,435.512 519.527,428.338 513.274,423.129Z" style="fill:rgb(219,144,176);"/>
                    </g>
                    <g transform="matrix(1.77446,0,0,1.24031,-1780.84,-1035.21)">
                        <path d="M430.782,355.757C431.132,354.736 432.27,354.18 433.32,354.516C434.371,354.852 434.939,355.954 434.589,356.975L418.981,402.44C418.631,403.461 417.493,404.017 416.443,403.681C415.392,403.344 414.824,402.242 415.174,401.221L430.782,355.757Z" style="fill:rgb(219,144,176);"/>
                    </g>
                    <g transform="matrix(1.77446,0,2.08167e-17,1.24031,-1822.42,-1025.23)">
                        <path d="M536.053,356.576C536.308,355.529 537.39,354.877 538.468,355.12C539.546,355.363 540.213,356.411 539.958,357.458L529.634,399.841C529.379,400.888 528.297,401.541 527.22,401.297C526.142,401.054 525.474,400.006 525.729,398.959L536.053,356.576Z" style="fill:rgb(219,144,176);"/>
                    </g>
                </g>
            </g>
            <g id="羽（手前）" transform="matrix(0.972855,0,0,0.972855,52.5521,27.1478)">
                <g transform="matrix(1.77446,0,0,1.24031,-1786.93,-1025.63)">
                    <path d="M723.855,316.887C709.971,291.941 723.373,242.304 748.132,217.178C796.83,167.757 858.518,137.425 870.384,150.416C907.81,191.387 822.697,232.785 822.697,232.785C822.697,232.785 876.395,229.987 879.055,254.461C883.328,293.781 816.628,307.35 816.628,307.35C816.628,307.35 863.812,317.766 852.176,339.43C836.066,369.426 751.6,366.742 723.855,316.887Z" style="fill:white;"/>
                </g>
                <g transform="matrix(1.77446,0,0,1.24031,-1786.93,-1025.63)">
                    <path d="M722.052,317.891C716.31,307.573 714.999,293.181 717.231,277.95C720.53,255.434 731.525,231.092 746.662,215.73C781.041,180.842 821.868,155.43 847.356,147.791C854.198,145.741 859.989,144.965 864.331,145.523C867.645,145.948 870.192,147.147 871.907,149.025C878.26,155.98 881.244,162.966 881.843,169.762C882.734,179.876 878.301,189.643 871.384,198.389C859.792,213.046 841.238,224.837 830.995,230.668C838.236,230.833 849.01,231.586 858.623,234.271C870.196,237.504 879.954,243.642 881.105,254.238C882.903,270.781 872.907,283.076 860.084,291.772C847.974,299.984 833.397,304.961 824.692,307.436C830.771,309.341 839.322,312.547 845.865,317.084C854.168,322.84 859.227,330.663 853.994,340.407C847.276,352.914 829.275,360.234 808.1,360.874C776.937,361.815 739.078,348.485 722.052,317.891ZM725.657,315.884C741.925,345.116 778.2,357.649 807.976,356.75C827.428,356.163 844.188,349.944 850.359,338.454C854.436,330.865 849.982,324.958 843.515,320.474C832.73,312.997 816.183,309.364 816.183,309.364C815.232,309.154 814.557,308.307 814.565,307.333C814.573,306.359 815.262,305.523 816.217,305.329C816.217,305.329 839.806,300.538 857.769,288.357C869.328,280.518 878.625,269.597 877.004,254.683C876.027,245.699 867.327,240.987 857.513,238.245C841.774,233.848 822.804,234.845 822.804,234.845C821.825,234.896 820.945,234.25 820.7,233.3C820.455,232.35 820.913,231.359 821.795,230.93C821.795,230.93 851.975,216.279 868.148,195.83C874.374,187.957 878.536,179.228 877.733,170.125C877.203,164.109 874.484,157.963 868.861,151.807C867.729,150.567 865.993,149.896 863.806,149.615C859.898,149.113 854.698,149.898 848.541,151.743C823.481,159.254 783.401,184.325 749.601,218.626C735.028,233.415 724.489,256.872 721.313,278.548C719.228,292.779 720.292,306.244 725.657,315.884Z" style="fill:rgb(219,144,176);"/>
                </g>
                <g transform="matrix(1.77446,0,0,1.24031,-1786.93,-1025.63)">
                    <path d="M779.617,297.562C780.051,296.51 781.258,296.008 782.311,296.442C783.363,296.876 783.865,298.083 783.431,299.136C783.431,299.136 778.569,310.666 767.555,308.44C764.532,307.829 761.894,305.097 760.446,301.173C757.418,292.963 759.486,279.701 772.102,275.374C777.941,273.372 784.059,275.825 788.637,280.728C794.736,287.261 797.982,298.068 794.081,307.004C791.494,312.929 785.788,318.141 775.494,320.627C765.816,322.964 758.363,321.655 753.012,317.867C745.096,312.264 741.635,300.968 742.808,286.885C744.28,269.217 755.742,253.968 769.075,242.093C788.739,224.581 812.344,214.416 812.344,214.416C813.389,213.966 814.604,214.449 815.054,215.495C815.505,216.541 815.021,217.755 813.976,218.205C813.976,218.205 790.979,228.111 771.819,245.174C759.27,256.35 748.305,270.599 746.92,287.227C745.893,299.557 748.465,309.594 755.395,314.5C759.942,317.718 766.302,318.602 774.526,316.616C783.184,314.526 788.124,310.337 790.3,305.353C793.542,297.925 790.691,288.974 785.621,283.544C782.222,279.903 777.777,277.79 773.441,279.277C764.884,282.212 762.547,290.387 763.548,296.745C763.874,298.822 764.553,300.71 765.518,302.144C766.297,303.303 767.241,304.167 768.373,304.396C776.248,305.988 779.617,297.562 779.617,297.562Z" style="fill:rgb(219,144,176);"/>
                </g>
            </g>
            <g id="羽（奥）" transform="matrix(0.989427,0,0,0.989427,173.46,1.42832)">
                <g transform="matrix(1.77446,0,0,1.24031,-1725.85,-1052.51)">
                    <path d="M565.186,224.981C538.805,201.731 591.486,88.366 644.954,71.515C684.001,59.209 672.153,95.43 657.411,116.212C644.944,133.786 636.284,148.682 636.284,148.682C636.284,148.682 650.353,125.884 680.503,122.671C699.645,120.631 714.495,146.171 685.449,165.92C674.119,173.623 642.353,193.768 642.353,193.768C642.353,193.768 657.289,182.193 680.584,183.944C699.918,185.397 692.698,211.518 660.424,229.743C639.026,241.828 588.3,245.352 565.186,224.981Z" style="fill:white;"/>
                </g>
                <g transform="matrix(1.77446,0,0,1.24031,-1725.85,-1052.51)">
                    <path d="M662.952,183.025C668.132,181.97 674.107,181.423 680.736,181.921C685.251,182.261 688.488,183.84 690.536,186.179C692.637,188.579 693.552,191.828 693.152,195.655C692.111,205.624 681.56,220.137 661.422,231.51C648.313,238.912 624.435,243.227 602.325,240.956C587.441,239.426 573.377,234.904 563.845,226.503C560.376,223.445 558.104,218.992 556.981,213.443C555.399,205.618 556.102,195.531 558.701,184.307C564.646,158.623 580.488,126.852 600.386,102.975C613.792,86.888 629.058,74.399 644.344,69.581C657.06,65.573 664.796,66.679 668.974,70.278C673.037,73.779 674.115,79.823 672.897,86.938C671.238,96.635 665.428,108.416 659.065,117.386C654.963,123.168 651.275,128.66 648.176,133.419C655.656,127.722 666.296,122.145 680.288,120.654C692.998,119.299 703.974,128.961 703.797,141.605C703.684,149.707 698.947,159.195 686.59,167.597C681.355,171.156 671.764,177.367 662.952,183.025ZM647.298,193.028C644.896,194.557 643.439,195.481 643.439,195.481C642.524,196.061 641.315,195.82 640.693,194.933C640.071,194.047 640.254,192.828 641.11,192.165C641.11,192.165 642.539,191.052 645.204,189.553C654.056,183.92 675.445,170.269 684.309,164.242C695.189,156.845 699.641,148.682 699.741,141.549C699.883,131.342 690.978,123.594 680.718,124.687C651.617,127.789 638.01,149.747 638.01,149.747C637.427,150.691 636.193,150.992 635.241,150.422C634.289,149.851 633.972,148.622 634.53,147.662C634.53,147.662 643.231,132.695 655.756,115.039C661.777,106.551 667.329,95.429 668.899,86.254C669.834,80.785 669.45,76.042 666.327,73.352C664.695,71.946 662.346,71.168 659.185,71.064C655.632,70.948 651.145,71.691 645.564,73.45C630.908,78.069 616.355,90.149 603.502,105.572C584.013,128.959 568.476,160.066 562.653,185.222C560.207,195.785 559.468,205.275 560.957,212.639C561.883,217.216 563.665,220.937 566.527,223.46C575.486,231.355 588.75,235.483 602.74,236.92C623.942,239.099 646.857,235.076 659.427,227.977C678.018,217.479 688.156,204.437 689.118,195.233C689.386,192.669 688.892,190.459 687.484,188.852C686.023,187.183 683.652,186.208 680.432,185.966C664.714,184.785 652.94,189.874 647.298,193.028Z" style="fill:rgb(219,144,176);"/>
                </g>
                <g transform="matrix(1.77446,0,0,1.24031,-1725.85,-1052.51)">
                    <path d="M613.495,203.262C613.844,202.198 614.99,201.618 616.054,201.966C617.118,202.315 617.698,203.462 617.349,204.526C617.349,204.526 616.493,207.135 614.745,209.22C613.372,210.859 611.482,212.131 609.162,212.128C606.96,212.125 604.138,210.934 600.945,206.958C597.608,202.802 596.752,197.046 597.774,192.123C598.476,188.743 600.063,185.774 602.227,183.913C605.381,181.2 608.533,180.164 611.451,180.283C615.778,180.458 619.719,183.234 622.522,187.532C629.09,197.598 629.297,215.878 614.66,223.321C605.071,228.197 594.09,226.111 586.982,218.17C582.371,213.019 579.375,205.352 579.633,195.449C580.101,177.454 587.957,160.646 597.264,146.973C611.103,126.642 628.093,113.274 628.093,113.274C628.972,112.581 630.248,112.733 630.941,113.613C631.633,114.492 631.482,115.768 630.602,116.461C630.602,116.461 614.081,129.475 600.617,149.255C591.723,162.323 584.135,178.357 583.688,195.555C583.462,204.217 585.971,210.958 590.005,215.465C595.864,222.011 604.917,223.724 612.821,219.705C625.05,213.487 624.612,198.158 619.125,189.748C617.107,186.655 614.401,184.462 611.286,184.336C609.243,184.253 607.081,185.089 604.872,186.988C603.313,188.329 602.252,190.512 601.746,192.948C600.957,196.749 601.532,201.21 604.109,204.418C606.161,206.974 607.752,208.069 609.168,208.071C610.224,208.073 611.01,207.361 611.636,206.615C612.884,205.125 613.495,203.262 613.495,203.262Z" style="fill:rgb(219,144,176);"/>
                </g>
            </g>
        </g>
    </g>
</svg>
