<!--?xml version="1.0" encoding="utf-8"?-->
<!-- Generator: Adobe Illustrator 18.1.1, SVG Export Plug-In . SVG Version: 6.00 Build 0)  -->

<svg version="1.1" id="_x32_" xmlns="http://www.w3.org/2000/svg" xmlns:xlink="http://www.w3.org/1999/xlink" x="0px" y="0px" viewBox="0 0 512 512" style="width: 256px; height: 256px; opacity: 1;" xml:space="preserve">
<style type="text/css">
	.st0{fill:#4B4B4B;}
</style>
<g>
	<path class="st0" d="M69.416,108.468v364.478H512V108.468H69.416z M477.285,438.232H104.13V143.176h373.155V438.232z" style="fill: rgb(33, 33, 33);"></path>
	<path class="st0" d="M351.328,248.98c-3.586-5.436-9.667-8.711-16.182-8.704c-6.521,0.006-12.595,3.288-16.174,8.731
		l-62.434,95.012l-34.457-39.053c-3.993-4.528-9.877-6.934-15.903-6.501c-6.026,0.42-11.504,3.64-14.819,8.69l-57.83,88.112h314.356
		L351.328,248.98z" style="fill: rgb(33, 33, 33);"></path>
	<path class="st0" d="M220.665,268.849c21.699,0,39.29-17.591,39.29-39.297c0-21.699-17.591-39.29-39.29-39.29
		c-21.706,0-39.297,17.591-39.297,39.29C181.368,251.258,198.959,268.849,220.665,268.849z" style="fill: rgb(33, 33, 33);"></path>
	<polygon class="st0" points="442.584,73.761 442.584,39.053 0,39.053 0,403.531 34.715,403.531 34.715,368.817 34.715,73.761 
		407.87,73.761 	" style="fill: rgb(33, 33, 33);"></polygon>
</g>
</svg>
