<!--?xml version="1.0" encoding="utf-8"?-->
<!-- Generator: Adobe Illustrator 18.1.1, SVG Export Plug-In . SVG Version: 6.00 Build 0)  -->

<svg version="1.1" id="_x32_" xmlns="http://www.w3.org/2000/svg" xmlns:xlink="http://www.w3.org/1999/xlink" x="0px" y="0px" viewBox="0 0 512 512" style="width: 256px; height: 256px; opacity: 1;" xml:space="preserve">
<style type="text/css">
	.st0{fill:#4B4B4B;}
</style>
<g>
	<path class="st0" d="M61.805,197.23v124.299h164.834V180.294H78.732C69.371,180.294,61.805,187.884,61.805,197.23z" style="fill: rgb(33, 33, 33);"></path>
	<path class="st0" d="M433.268,180.294H285.361v141.234h164.834V197.23C450.195,187.884,442.629,180.294,433.268,180.294z" style="fill: rgb(33, 33, 33);"></path>
	<path class="st0" d="M61.805,495.073c0,9.361,7.566,16.927,16.927,16.927h147.907V370.774H61.805V495.073z" style="fill: rgb(33, 33, 33);"></path>
	<path class="st0" d="M285.361,512h147.907c9.361,0,16.927-7.566,16.927-16.927V370.774H285.361V512z" style="fill: rgb(33, 33, 33);"></path>
	<path class="st0" d="M420.622,103.687c2.822-6.468,2.65-13.94-0.455-20.259l-34.858-70.876c-3.215-6.538-9.22-11.102-16.151-12.262
		c-6.946-1.16-13.987,1.208-18.997,6.382l-78.654,81.217c-8.608,8.883-22.4,8.883-31.008,0L161.846,6.657
		c-5.002-5.167-12.058-7.527-19.004-6.367c-6.931,1.16-12.929,5.724-16.152,12.262L91.832,83.428
		c-3.104,6.319-3.277,13.783-0.454,20.251c2.815,6.469,8.318,11.228,14.904,12.89l144.528,36.708c3.419,0.87,6.986,0.87,10.404,0
		l144.52-36.708C412.311,114.907,417.807,110.156,420.622,103.687z" style="fill: rgb(33, 33, 33);"></path>
</g>
</svg>
