<svg width="192" height="192" viewBox="0 0 192 192" fill="none" xmlns="http://www.w3.org/2000/svg">
<rect width="192" height="192" fill="#44617B"/>
<path fill-rule="evenodd" clip-rule="evenodd" d="M43.166 68.3431C43.166 68.3431 36.5706 54.1165 41.1073 50.8682C43.5139 49.1451 46.2456 57.4589 46.2456 57.4589" fill="white"/>
<path fill-rule="evenodd" clip-rule="evenodd" d="M43.6344 68.126C43.7544 68.3845 43.6417 68.6917 43.3832 68.8116C43.1247 68.9314 42.8176 68.8188 42.6978 68.5604C42.6978 68.5604 39.4251 61.4863 39.0365 56.1127C38.8572 53.6339 39.3206 51.5127 40.8069 50.4486C41.7464 49.776 42.758 50.1578 43.6664 51.1913C45.3457 53.1022 46.7361 57.2979 46.7361 57.2979C46.8251 57.5686 46.6774 57.8606 46.4068 57.9494C46.1361 58.0384 45.8442 57.8909 45.7553 57.6202C45.7553 57.6202 44.4687 53.6683 42.8909 51.8729C42.6574 51.6072 42.4208 51.3918 42.1775 51.2617C41.9219 51.1252 41.6616 51.1065 41.4079 51.2882C40.1717 52.1732 39.9172 53.9765 40.0662 56.0382C40.4436 61.2581 43.6344 68.126 43.6344 68.126Z" fill="#023563"/>
<path fill-rule="evenodd" clip-rule="evenodd" d="M86.2023 144.626C86.2023 144.626 41.3046 140.765 41.4379 86.1968C41.5279 49.3433 66.3529 7.9518 107.406 14.7567C156.57 22.9059 155.953 102.67 147.741 123.139C136.637 150.82 114.851 148.49 114.851 148.49C114.851 148.49 127.822 150.784 125.783 160.647C122.947 174.37 104.356 181.53 96.4962 176.241C81.3053 166.017 100.15 151.506 100.15 151.506C100.15 151.506 85.8463 171.851 62.0766 159.422C52.281 154.3 63.5654 147.833 69.3011 146.362C75.3685 144.805 86.2023 144.626 86.2023 144.626Z" fill="white"/>
<path fill-rule="evenodd" clip-rule="evenodd" d="M92.483 159.268C85.8427 163.598 75.3422 166.941 61.8375 159.879C59.1868 158.493 58.0064 156.975 57.7576 155.514C57.5024 154.017 58.207 152.521 59.49 151.168C61.865 148.662 66.2289 146.617 69.1728 145.862C72.6809 144.962 77.7709 144.518 81.4704 144.303C75.6673 142.928 65.4838 139.412 56.7724 130.702C48.0985 122.03 40.8679 108.207 40.9217 86.1955C41.0124 49.046 66.1077 7.38763 107.491 14.2473C127.353 17.5396 139.194 32.3809 145.694 50.3572C155.396 77.1895 153.173 110.988 148.221 123.331C139.707 144.553 124.984 148.362 118.29 148.956C119.248 149.32 120.313 149.802 121.349 150.428C124.501 152.333 127.364 155.549 126.289 160.751C124.548 169.173 117.025 175.195 109.535 177.483C104.485 179.027 99.4598 178.858 96.2081 176.669C93.0503 174.544 91.3202 172.23 90.5528 169.905C89.3978 166.405 90.4192 162.852 92.1786 159.783C92.2778 159.61 92.3794 159.438 92.483 159.268ZM94.2719 156.708C96.9146 153.346 99.8349 151.097 99.8349 151.097C100.037 150.941 100.323 150.956 100.507 151.133C100.691 151.309 100.719 151.594 100.572 151.802C100.572 151.802 98.6338 154.563 94.9961 157.455C94.3133 158.333 93.6529 159.287 93.0744 160.296C91.4591 163.114 90.4729 166.368 91.5333 169.581C92.2426 171.73 93.866 173.849 96.7845 175.813C99.8208 177.856 104.517 177.936 109.233 176.496C116.391 174.309 123.615 168.589 125.278 160.542C126.241 155.882 123.639 153.019 120.815 151.311C117.912 149.556 114.762 148.998 114.762 148.998C114.488 148.95 114.301 148.693 114.34 148.417C114.379 148.142 114.63 147.947 114.906 147.977C114.906 147.977 136.323 150.216 147.262 122.947C152.164 110.728 154.327 77.2707 144.723 50.7083C138.351 33.088 126.791 18.4929 107.322 15.2658C66.5982 8.51559 42.0433 49.6404 41.9542 86.1981C41.9012 107.841 48.9739 121.446 57.5024 129.972C70.2632 142.73 86.2466 144.112 86.2466 144.112C86.5203 144.135 86.7277 144.369 86.7182 144.644C86.7088 144.919 86.4856 145.138 86.2108 145.142C86.2108 145.142 75.4537 145.316 69.4295 146.862C66.6377 147.578 62.4916 149.502 60.2392 151.878C59.2085 152.966 58.5703 154.138 58.7752 155.341C58.9864 156.579 60.0684 157.789 62.3159 158.964C77.09 166.689 88.144 161.536 94.2719 156.708Z" fill="#023563"/>
<path fill-rule="evenodd" clip-rule="evenodd" d="M113.13 68.513C112.912 68.6965 112.586 68.6684 112.402 68.4502C112.219 68.2322 112.247 67.9063 112.465 67.723C112.465 67.723 116.173 64.614 118.69 63.6476C119.309 63.4099 119.868 63.3008 120.306 63.3492C120.891 63.4136 121.315 63.7128 121.512 64.3173C123.567 70.617 117.968 76.2816 117.968 76.2816C117.767 76.4836 117.44 76.4843 117.238 76.2835C117.036 76.0825 117.035 75.7554 117.236 75.5534C117.236 75.5534 119.102 73.6752 120.187 70.9194C120.898 69.1126 121.276 66.9219 120.531 64.6375C120.459 64.4168 120.269 64.3617 120.033 64.3706C119.751 64.3815 119.421 64.4729 119.06 64.6114C116.659 65.5335 113.13 68.513 113.13 68.513Z" fill="#023563"/>
<path fill-rule="evenodd" clip-rule="evenodd" d="M69.2439 39.0325C69.4798 38.8727 69.8011 38.9345 69.961 39.1704C70.1206 39.4061 70.0589 39.7274 69.8231 39.8872C69.8231 39.8872 69.0469 40.4135 68.5073 41.2036C68.0297 41.9023 67.7427 42.8353 68.5795 43.7696C69.6079 44.9176 71.7151 45.6584 73.8074 46.0299C75.9031 46.4019 77.9973 46.4041 79.0184 45.9572C79.669 45.6725 79.8683 45.0625 79.9054 44.4524C79.9719 43.363 79.5295 42.2306 79.5295 42.2306C79.4262 41.9651 79.5582 41.6657 79.8237 41.5626C80.0892 41.4593 80.3886 41.5913 80.4919 41.8568C80.4919 41.8568 81.0155 43.2123 80.936 44.5154C80.8758 45.5006 80.4835 46.443 79.4324 46.9032C78.2946 47.4011 75.9623 47.4609 73.6271 47.0463C71.2882 46.6313 68.9598 45.7416 67.8105 44.4585C66.5585 43.0607 66.9405 41.6665 67.6546 40.6212C68.3063 39.6673 69.2439 39.0325 69.2439 39.0325Z" fill="#023563"/>
<path fill-rule="evenodd" clip-rule="evenodd" d="M91.4604 42.8318C91.737 42.7631 92.0173 42.932 92.0859 43.2083C92.1546 43.4848 91.986 43.7651 91.7094 43.8338C91.7094 43.8338 90.3056 44.163 89.952 45.3477C89.7949 45.8743 89.8601 46.5569 90.2958 47.4436C90.3803 47.6155 90.5513 47.7807 90.7742 47.9519C91.1925 48.2736 91.7834 48.5857 92.4712 48.8794C94.1465 49.5951 96.3834 50.1876 98.2279 50.4558C99.3933 50.6255 100.393 50.6756 100.96 50.5145C102.191 50.1649 102.597 49.2732 102.697 48.4704C102.805 47.6071 102.583 46.8376 102.583 46.8376C102.504 46.5638 102.662 46.2773 102.936 46.198C103.209 46.1186 103.496 46.2764 103.575 46.55C103.575 46.55 103.857 47.5152 103.721 48.5984C103.579 49.7422 102.996 51.0092 101.242 51.5076C100.741 51.65 99.9536 51.6755 99.0115 51.5893C96.9529 51.401 94.1097 50.7019 92.0658 49.829C90.6956 49.2439 89.6853 48.5422 89.3692 47.8989C88.7795 46.6984 88.7499 45.7654 88.9627 45.0526C89.4721 43.3455 91.4604 42.8318 91.4604 42.8318Z" fill="#023563"/>
<path fill-rule="evenodd" clip-rule="evenodd" d="M80.7187 45.0816C80.4339 45.0924 80.1942 44.8699 80.1834 44.5851C80.1726 44.3005 80.395 44.0607 80.6797 44.0499C82.4412 43.9832 84.2616 44.2102 85.5066 44.4188C86.6326 44.6074 87.9082 44.9443 89.5013 45.4978C89.7706 45.5914 89.913 45.8859 89.8196 46.1549C89.7259 46.4241 89.4317 46.5667 89.1625 46.4731C87.6362 45.9428 86.4147 45.6177 85.336 45.4371C84.1451 45.2376 82.4037 45.0178 80.7187 45.0816Z" fill="#023563"/>
<path fill-rule="evenodd" clip-rule="evenodd" d="M85.782 47.874C88.7983 46.5585 91.7959 48.1839 93.4836 50.7158C95.1725 53.2497 95.5069 56.6442 93.3504 58.7737C92.0404 60.0672 90.6523 60.5018 89.3376 60.3724C87.4205 60.1838 85.6294 58.7504 84.4541 56.872C82.4757 53.71 82.3009 49.3924 85.782 47.874ZM86.1948 48.8204C84.8003 49.4287 84.1712 50.606 84.0815 51.9431C83.986 53.371 84.4831 54.972 85.3294 56.3245C86.3269 57.9188 87.8115 59.1849 89.4386 59.345C90.4867 59.448 91.5806 59.0703 92.625 58.0391C94.4312 56.2553 94.0393 53.4109 92.6244 51.2885C91.2086 49.1642 88.7254 47.7167 86.1948 48.8204Z" fill="#023563"/>
<path fill-rule="evenodd" clip-rule="evenodd" d="M83.1219 47.3691C83.8577 47.9078 84.2228 48.7211 84.2679 49.6897C84.3278 50.9782 83.7983 52.566 82.8956 54.0372C82.0104 55.4796 80.7723 56.8095 79.4327 57.6362C78.1485 58.4288 76.769 58.7583 75.4935 58.3686C74.6381 58.1072 73.8192 57.5228 73.1092 56.5029C71.8853 54.7445 72.1513 52.144 73.3976 49.9697C75.2516 46.7353 79.1868 44.4877 83.1219 47.3691ZM82.5119 48.2021C79.1775 45.7607 75.8644 47.7427 74.2935 50.4832C73.2565 52.292 72.9384 54.4502 73.9567 55.913C74.5084 56.7056 75.1306 57.1781 75.7954 57.3812C76.8003 57.6883 77.8785 57.3822 78.8905 56.7576C80.1019 56.0101 81.2151 54.8014 82.0156 53.4971C82.6734 52.425 83.1219 51.288 83.2203 50.2858C83.3056 49.417 83.1303 48.6548 82.5119 48.2021Z" fill="#023563"/>
<path fill-rule="evenodd" clip-rule="evenodd" d="M95.0754 33.8982C94.5043 32.0137 96.0458 30.5815 97.9449 30.1214C99.0282 29.8589 100.201 29.9201 101.069 30.3518C101.712 30.6718 102.199 31.1871 102.408 31.914C102.92 33.6936 101.431 35.2201 99.5802 35.7543C97.7371 36.286 95.6554 35.8121 95.0754 33.8982ZM96.0635 33.5989C96.4722 34.9475 97.9951 35.1371 99.294 34.7622C99.9796 34.5644 100.619 34.2021 101.035 33.7175C101.398 33.2949 101.581 32.7744 101.416 32.1995C101.257 31.6475 100.817 31.3145 100.277 31.1426C99.6511 30.9434 98.8947 30.9537 98.1879 31.1248C96.8824 31.4412 95.6708 32.3032 96.0635 33.5989Z" fill="#023563"/>
<path fill-rule="evenodd" clip-rule="evenodd" d="M78.907 31.3812C77.1733 32.729 75.0875 32.1678 73.8935 30.9198C73.1559 30.1489 72.7687 29.1219 72.9675 28.131C73.1003 27.4686 73.4918 26.8114 74.2471 26.2579C75.5794 25.2817 77.4988 25.8977 78.7085 27.1234C79.9659 28.3973 80.3991 30.2212 78.907 31.3812ZM78.2733 30.5662C79.2303 29.822 78.7803 28.6657 77.9737 27.8485C77.5233 27.3922 76.9461 27.0297 76.3556 26.8755C75.8323 26.7392 75.2968 26.7688 74.8575 27.0906C74.3507 27.462 74.0689 27.8897 73.9797 28.3339C73.8454 29.0033 74.1413 29.6853 74.6395 30.2061C75.5056 31.1113 77.016 31.5437 78.2733 30.5662Z" fill="#023563"/>
<path fill-rule="evenodd" clip-rule="evenodd" d="M97.4104 36.7742C97.7708 36.9343 98.0578 37.3295 98.2254 37.9202C98.546 39.0504 98.474 40.963 98.1141 42.8228C97.8062 44.4123 97.2902 45.9614 96.6555 46.9496C96.1671 47.7097 95.587 48.1429 94.9986 48.1466C94.2542 48.1514 93.7474 47.6066 93.5133 46.6707C93.2229 45.5104 93.3427 43.7066 93.7291 41.955C94.1827 39.8984 95.0092 37.9221 95.9054 37.1174C96.3921 36.6806 96.9076 36.5509 97.4104 36.7742ZM97.131 37.4032C96.9349 37.3161 96.7392 37.3629 96.5466 37.4886C96.3749 37.6007 96.2081 37.7701 96.0448 37.9815C95.356 38.8731 94.7625 40.4656 94.4013 42.1032C94.0406 43.7381 93.91 45.4207 94.181 46.5035C94.3212 47.0641 94.5483 47.4612 94.9943 47.4584C95.3959 47.4557 95.7431 47.0965 96.0763 46.5776C96.6734 45.648 97.1487 44.1872 97.4382 42.692C97.7285 41.1927 97.8313 39.6572 97.6637 38.5796C97.6123 38.2497 97.5366 37.9658 97.4284 37.7463C97.3483 37.5838 97.2568 37.4592 97.131 37.4032Z" fill="#023563"/>
<path fill-rule="evenodd" clip-rule="evenodd" d="M97.2709 37.0891C94.7289 35.9595 92.0233 47.8217 94.9966 47.8028C97.4706 47.7871 99.1775 37.9361 97.2709 37.0891Z" fill="#023563"/>
<path fill-rule="evenodd" clip-rule="evenodd" d="M75.5952 32.6076C76.1028 32.8085 76.4179 33.3589 76.5061 34.1676C76.6759 35.7264 76.0479 38.3297 75.2227 40.4583C74.6658 41.8945 74.0166 43.1134 73.4797 43.6701C73.1462 44.016 72.814 44.128 72.557 44.067C71.9411 43.9204 71.5471 43.389 71.3893 42.5754C71.0842 41.0024 71.6624 38.2804 72.5319 36.0879C73.1228 34.5982 73.8539 33.3567 74.506 32.8492C74.889 32.5513 75.2645 32.4768 75.5952 32.6076ZM72.7092 43.3956C72.7156 43.3937 72.7357 43.3877 72.7477 43.3821C72.7706 43.3712 72.7939 43.3567 72.8181 43.3396C72.934 43.2574 73.0559 43.1247 73.1854 42.9548C73.6356 42.3642 74.1353 41.3589 74.5809 40.2095C75.2557 38.4687 75.8045 36.3978 75.8444 34.9048C75.8566 34.4433 75.8214 34.041 75.7168 33.7299C75.6384 33.4975 75.5268 33.3207 75.3418 33.2476C75.2724 33.2201 75.1987 33.237 75.1211 33.272C74.9837 33.3341 74.8441 33.451 74.6989 33.6054C74.1763 34.162 73.6351 35.1733 73.1717 36.3416C72.4659 38.1212 71.9464 40.266 71.9959 41.7808C72.011 42.2436 72.0776 42.6434 72.2202 42.9439C72.3297 43.1745 72.4842 43.3393 72.7092 43.3956Z" fill="#023563"/>
<path fill-rule="evenodd" clip-rule="evenodd" d="M75.4681 32.9278C73.5526 32.1699 69.885 43.0779 72.6362 43.7324C74.0588 44.071 77.7382 33.8261 75.4681 32.9278Z" fill="#023563"/>
</svg>
