<svg id="contents" xmlns="http://www.w3.org/2000/svg" viewBox="0 0 379.74 570"><path d="M589.59,175.07c-2.61-19.18-23.44-34.36-62-45.17C493.29,120.29,448,115,400,115s-93.29,5.29-127.56,14.9c-38.59,10.81-59.42,26-62,45.17h-.28V566c0,16.76,13.17,30.66,39.2,41.47-.12-1.56-.17-3.09-.17-4.57a53,53,0,0,1,6.69-26c-10.59-5-14.53-9.32-15.1-11v-93a189.62,189.62,0,0,0,34.9,13.2c33.76,9.46,77.92,14.67,124.35,14.67s90.59-5.21,124.35-14.67a189.62,189.62,0,0,0,34.9-13.2v93c-.81,2.46-8.41,10.06-32.31,17.72v32l.62-.17c41.35-11.59,62.31-28.19,62.31-49.34V175.07ZM285.08,158.2c31.15-8.11,72-12.58,114.92-12.58s83.77,4.47,114.92,12.58c32.85,8.56,43,18,44.27,21-1.25,3-11.42,12.48-44.27,21-31.15,8.11-72,12.57-114.92,12.57s-83.77-4.46-114.92-12.57c-32.85-8.56-43-18-44.27-21C242.06,176.21,252.23,166.76,285.08,158.2ZM559.25,436.5a56.83,56.83,0,0,1-5.94,4.48c-9,5.94-21.48,11.19-37.23,15.6-31.14,8.73-72.37,13.53-116.08,13.53s-84.94-4.8-116.08-13.53c-15.75-4.41-28.27-9.66-37.23-15.6a56.83,56.83,0,0,1-5.94-4.48V344.59a189.64,189.64,0,0,0,34.9,13.19c33.76,9.46,77.92,14.67,124.35,14.67s90.59-5.21,124.35-14.67a189.64,189.64,0,0,0,34.9-13.19Zm0-128.28a58.26,58.26,0,0,1-5.94,4.48c-9,5.94-21.48,11.18-37.23,15.6C484.94,337,443.71,341.83,400,341.83S315.06,337,283.92,328.3c-15.75-4.42-28.27-9.66-37.23-15.6a58.26,58.26,0,0,1-5.94-4.48V216.79a179.25,179.25,0,0,0,31.69,11.78c34.27,9.61,79.58,14.9,127.56,14.9s93.29-5.29,127.56-14.9a179.25,179.25,0,0,0,31.69-11.78Z" transform="translate(-210.13 -115)"/><polygon points="266.05 458.47 291.29 458.47 291.29 539.02 332.79 539.01 332.79 562.33 266.05 562.33 266.05 458.47"/><path d="M311.37,677.85c-20.26,0-34.75-9.19-40.79-25.89l-.35-1,21.35-7.94.44.74c4.49,7.7,11.86,12.48,19.22,12.48,4.54,0,8-.82,10.22-2.44a7.32,7.32,0,0,0,3-6.3c0-4.18-2-7.7-11.82-11.31l-14.37-5c-16.56-5.87-23.62-14.35-23.62-28.36a27.65,27.65,0,0,1,9.63-21.13C290.92,576,300.14,573,311,573h0c18.45,0,30.76,6.73,36.61,20l.34.76-1.11.79L327,601.87l-.46-.64a17.75,17.75,0,0,0-14.66-7.47c-8.21,0-12.74,2.8-12.74,7.87,0,3.51,3.08,6.06,10,8.28l15.8,5.13c16.87,5.48,25.42,15.57,25.42,30,0,20.84-14.21,32.8-39,32.8Z" transform="translate(-210.13 -115)"/><path d="M445.85,684.5A166.43,166.43,0,0,1,423,668.24a43.32,43.32,0,0,1-14.19,2.39c-26.15,0-47.42-23.43-47.43-52.23s21.28-52.22,47.43-52.22,47.43,23.43,47.43,52.23a55.24,55.24,0,0,1-11.81,34.48,123.87,123.87,0,0,0,14,9.55l.88.5L446.74,685Zm-37.09-93.08c-11.06,0-20.4,12.35-20.4,27s9.34,27,20.4,27,20.4-12.36,20.4-27S419.82,591.42,408.76,591.42Z" transform="translate(-210.13 -115)"/></svg>