<?xml version="1.0" encoding="utf-8"?>
<!-- Generator: Adobe Illustrator 25.2.0, SVG Export Plug-In . SVG Version: 6.00 Build 0)  -->
<svg version="1.1" id="レイヤー_1" xmlns="http://www.w3.org/2000/svg" xmlns:xlink="http://www.w3.org/1999/xlink" x="0px"
	 y="0px" viewBox="0 0 600 143" style="enable-background:new 0 0 600 143;" xml:space="preserve">
<style type="text/css">
	.st0{fill:#3EA8FF;}
</style>
<g>
	<path d="M368.7,93.64h-60.19c0.77,5.4,3.4,10.49,7.41,14.2c4.17,3.55,9.57,5.4,15.12,5.25c4.32,0,8.64-0.77,12.65-2.62
		c3.86-1.7,7.41-4.32,10.03-7.72l12.65,14.66c-3.86,5.25-8.8,9.41-14.66,12.19c-7.1,3.4-14.81,5.09-22.69,4.94
		c-8.8,0.15-17.59-1.85-25.46-6.17c-6.94-3.86-12.65-9.72-16.51-16.82c-3.86-7.1-5.86-15.12-5.71-23.3v-3.4
		c-0.15-8.8,1.7-17.44,5.4-25.46c3.4-7.25,8.8-13.27,15.59-17.44c7.25-4.32,15.59-6.48,23.92-6.33c8.02-0.15,15.9,1.7,22.99,5.71
		c6.33,3.86,11.42,9.57,14.51,16.2c3.4,7.87,5.09,16.2,4.94,24.85V93.64z M342.62,73.74c0.15-4.48-1.39-8.8-4.32-12.19
		c-2.78-2.93-6.79-4.48-12.19-4.48c-4.48-0.15-8.95,1.7-11.88,4.94c-3.09,4.01-5.09,8.8-5.56,13.89h33.95V73.74z"/>
	<path d="M207.13,110.77h55.71v22.69h-87.81V117.1l55.25-83.8h-55.86V10.46h87.35v16.05L207.13,110.77z"/>
	<path d="M393.09,84.23c0-29.48,19.6-45.06,43.52-45.06s43.06,15.59,43.06,45.06v48.3h-24.69V85.31c0-16.36-7.41-24.85-18.52-24.85
		s-19.14,8.49-19.14,24.85v47.38h-24.38L393.09,84.23L393.09,84.23z"/>
	<path d="M503.43,84.23c0-29.48,19.6-45.06,43.52-45.06S590,54.75,590,84.23v48.3h-24.69V85.31c0-16.36-7.41-24.85-18.52-24.85
		c-11.11,0-19.14,8.49-19.14,24.85v47.38h-24.38L503.43,84.23L503.43,84.23z"/>
</g>
<path class="st0" d="M12.84,134.54h26.23c1.39,0,2.62-0.77,3.4-1.85l72.22-118.67c0.93-1.54-0.15-3.4-2.01-3.4H87.84
	c-1.23,0-2.31,0.62-2.93,1.7L11.6,132.38C11.14,133.3,11.76,134.54,12.84,134.54z"/>
<path class="st0" d="M103.27,132.69l34.11-54.78c1.08-1.7-0.15-3.86-2.16-3.86h-24.69c-0.93,0-1.85,0.46-2.31,1.23L73.18,131.3
	c-0.93,1.39,0.15,3.24,1.85,3.24h25.15C101.42,134.54,102.65,133.92,103.27,132.69z"/>
</svg>
